<svg xmlns="http://www.w3.org/2000/svg" viewBox="0 0 1440.00 720.00" width="100%" height="100%" font-family="Fraunces" style="display:block">
<rect width="1440.00" height="720.00" fill="#161310"/>
<path d="M533.93 73.62a3.40 3.40 0 1 0 6.81 0a3.40 3.40 0 1 0 -6.81 0M533.93 84.85a3.40 3.40 0 1 0 6.81 0a3.40 3.40 0 1 0 -6.81 0M533.93 96.08a3.40 3.40 0 1 0 6.81 0a3.40 3.40 0 1 0 -6.81 0M533.93 107.31a3.40 3.40 0 1 0 6.81 0a3.40 3.40 0 1 0 -6.81 0M533.93 118.54a3.40 3.40 0 1 0 6.81 0a3.40 3.40 0 1 0 -6.81 0M533.93 129.77a3.40 3.40 0 1 0 6.81 0a3.40 3.40 0 1 0 -6.81 0M533.93 141.00a3.40 3.40 0 1 0 6.81 0a3.40 3.40 0 1 0 -6.81 0M533.93 152.23a3.40 3.40 0 1 0 6.81 0a3.40 3.40 0 1 0 -6.81 0M533.93 163.46a3.40 3.40 0 1 0 6.81 0a3.40 3.40 0 1 0 -6.81 0M533.93 174.69a3.40 3.40 0 1 0 6.81 0a3.40 3.40 0 1 0 -6.81 0M533.93 185.92a3.40 3.40 0 1 0 6.81 0a3.40 3.40 0 1 0 -6.81 0M533.93 197.15a3.40 3.40 0 1 0 6.81 0a3.40 3.40 0 1 0 -6.81 0M533.93 208.38a3.40 3.40 0 1 0 6.81 0a3.40 3.40 0 1 0 -6.81 0M533.93 219.62a3.40 3.40 0 1 0 6.81 0a3.40 3.40 0 1 0 -6.81 0M533.93 230.85a3.40 3.40 0 1 0 6.81 0a3.40 3.40 0 1 0 -6.81 0M533.93 242.08a3.40 3.40 0 1 0 6.81 0a3.40 3.40 0 1 0 -6.81 0M533.93 253.31a3.40 3.40 0 1 0 6.81 0a3.40 3.40 0 1 0 -6.81 0M533.93 264.54a3.40 3.40 0 1 0 6.81 0a3.40 3.40 0 1 0 -6.81 0M533.93 275.77a3.40 3.40 0 1 0 6.81 0a3.40 3.40 0 1 0 -6.81 0M533.93 287.00a3.40 3.40 0 1 0 6.81 0a3.40 3.40 0 1 0 -6.81 0M533.93 298.23a3.40 3.40 0 1 0 6.81 0a3.40 3.40 0 1 0 -6.81 0M533.93 309.46a3.40 3.40 0 1 0 6.81 0a3.40 3.40 0 1 0 -6.81 0M533.93 320.69a3.40 3.40 0 1 0 6.81 0a3.40 3.40 0 1 0 -6.81 0M533.93 331.92a3.40 3.40 0 1 0 6.81 0a3.40 3.40 0 1 0 -6.81 0M533.93 343.15a3.40 3.40 0 1 0 6.81 0a3.40 3.40 0 1 0 -6.81 0M533.93 354.38a3.40 3.40 0 1 0 6.81 0a3.40 3.40 0 1 0 -6.81 0M533.93 365.62a3.40 3.40 0 1 0 6.81 0a3.40 3.40 0 1 0 -6.81 0M533.93 376.85a3.40 3.40 0 1 0 6.81 0a3.40 3.40 0 1 0 -6.81 0M533.93 388.08a3.40 3.40 0 1 0 6.81 0a3.40 3.40 0 1 0 -6.81 0M533.93 399.31a3.40 3.40 0 1 0 6.81 0a3.40 3.40 0 1 0 -6.81 0M533.93 410.54a3.40 3.40 0 1 0 6.81 0a3.40 3.40 0 1 0 -6.81 0M533.93 421.77a3.40 3.40 0 1 0 6.81 0a3.40 3.40 0 1 0 -6.81 0M533.93 433.00a3.40 3.40 0 1 0 6.81 0a3.40 3.40 0 1 0 -6.81 0M533.93 444.23a3.40 3.40 0 1 0 6.81 0a3.40 3.40 0 1 0 -6.81 0M533.93 455.46a3.40 3.40 0 1 0 6.81 0a3.40 3.40 0 1 0 -6.81 0M533.93 466.69a3.40 3.40 0 1 0 6.81 0a3.40 3.40 0 1 0 -6.81 0M533.93 477.92a3.40 3.40 0 1 0 6.81 0a3.40 3.40 0 1 0 -6.81 0M533.93 489.15a3.40 3.40 0 1 0 6.81 0a3.40 3.40 0 1 0 -6.81 0M533.93 500.38a3.40 3.40 0 1 0 6.81 0a3.40 3.40 0 1 0 -6.81 0M533.93 511.62a3.40 3.40 0 1 0 6.81 0a3.40 3.40 0 1 0 -6.81 0M533.93 522.85a3.40 3.40 0 1 0 6.81 0a3.40 3.40 0 1 0 -6.81 0M533.93 534.08a3.40 3.40 0 1 0 6.81 0a3.40 3.40 0 1 0 -6.81 0M533.93 545.31a3.40 3.40 0 1 0 6.81 0a3.40 3.40 0 1 0 -6.81 0M533.93 556.54a3.40 3.40 0 1 0 6.81 0a3.40 3.40 0 1 0 -6.81 0M533.93 567.77a3.40 3.40 0 1 0 6.81 0a3.40 3.40 0 1 0 -6.81 0M533.93 579.00a3.40 3.40 0 1 0 6.81 0a3.40 3.40 0 1 0 -6.81 0M533.93 590.23a3.40 3.40 0 1 0 6.81 0a3.40 3.40 0 1 0 -6.81 0M533.93 601.46a3.40 3.40 0 1 0 6.81 0a3.40 3.40 0 1 0 -6.81 0M533.93 612.69a3.40 3.40 0 1 0 6.81 0a3.40 3.40 0 1 0 -6.81 0M533.93 623.92a3.40 3.40 0 1 0 6.81 0a3.40 3.40 0 1 0 -6.81 0M533.93 635.15a3.40 3.40 0 1 0 6.81 0a3.40 3.40 0 1 0 -6.81 0M533.93 646.38a3.40 3.40 0 1 0 6.81 0a3.40 3.40 0 1 0 -6.81 0M574.20 73.62a3.40 3.40 0 1 0 6.81 0a3.40 3.40 0 1 0 -6.81 0M574.20 84.85a3.40 3.40 0 1 0 6.81 0a3.40 3.40 0 1 0 -6.81 0M574.20 96.08a3.40 3.40 0 1 0 6.81 0a3.40 3.40 0 1 0 -6.81 0M574.20 107.31a3.40 3.40 0 1 0 6.81 0a3.40 3.40 0 1 0 -6.81 0M574.20 118.54a3.40 3.40 0 1 0 6.81 0a3.40 3.40 0 1 0 -6.81 0M574.20 129.77a3.40 3.40 0 1 0 6.81 0a3.40 3.40 0 1 0 -6.81 0M574.20 141.00a3.40 3.40 0 1 0 6.81 0a3.40 3.40 0 1 0 -6.81 0M574.20 152.23a3.40 3.40 0 1 0 6.81 0a3.40 3.40 0 1 0 -6.81 0M574.20 163.46a3.40 3.40 0 1 0 6.81 0a3.40 3.40 0 1 0 -6.81 0M574.20 174.69a3.40 3.40 0 1 0 6.81 0a3.40 3.40 0 1 0 -6.81 0M574.20 185.92a3.40 3.40 0 1 0 6.81 0a3.40 3.40 0 1 0 -6.81 0M574.20 197.15a3.40 3.40 0 1 0 6.81 0a3.40 3.40 0 1 0 -6.81 0M574.20 208.38a3.40 3.40 0 1 0 6.81 0a3.40 3.40 0 1 0 -6.81 0M574.20 219.62a3.40 3.40 0 1 0 6.81 0a3.40 3.40 0 1 0 -6.81 0M574.20 230.85a3.40 3.40 0 1 0 6.81 0a3.40 3.40 0 1 0 -6.81 0M574.20 242.08a3.40 3.40 0 1 0 6.81 0a3.40 3.40 0 1 0 -6.81 0M574.20 253.31a3.40 3.40 0 1 0 6.81 0a3.40 3.40 0 1 0 -6.81 0M574.20 264.54a3.40 3.40 0 1 0 6.81 0a3.40 3.40 0 1 0 -6.81 0M574.20 275.77a3.40 3.40 0 1 0 6.81 0a3.40 3.40 0 1 0 -6.81 0M574.20 287.00a3.40 3.40 0 1 0 6.81 0a3.40 3.40 0 1 0 -6.81 0M574.20 298.23a3.40 3.40 0 1 0 6.81 0a3.40 3.40 0 1 0 -6.81 0M574.20 309.46a3.40 3.40 0 1 0 6.81 0a3.40 3.40 0 1 0 -6.81 0M574.20 320.69a3.40 3.40 0 1 0 6.81 0a3.40 3.40 0 1 0 -6.81 0M574.20 331.92a3.40 3.40 0 1 0 6.81 0a3.40 3.40 0 1 0 -6.81 0M574.20 343.15a3.40 3.40 0 1 0 6.81 0a3.40 3.40 0 1 0 -6.81 0M574.20 354.38a3.40 3.40 0 1 0 6.81 0a3.40 3.40 0 1 0 -6.81 0M574.20 365.62a3.40 3.40 0 1 0 6.81 0a3.40 3.40 0 1 0 -6.81 0M574.20 376.85a3.40 3.40 0 1 0 6.81 0a3.40 3.40 0 1 0 -6.81 0M574.20 388.08a3.40 3.40 0 1 0 6.81 0a3.40 3.40 0 1 0 -6.81 0M574.20 399.31a3.40 3.40 0 1 0 6.81 0a3.40 3.40 0 1 0 -6.81 0M574.20 410.54a3.40 3.40 0 1 0 6.81 0a3.40 3.40 0 1 0 -6.81 0M574.20 421.77a3.40 3.40 0 1 0 6.81 0a3.40 3.40 0 1 0 -6.81 0M574.20 433.00a3.40 3.40 0 1 0 6.81 0a3.40 3.40 0 1 0 -6.81 0M574.20 444.23a3.40 3.40 0 1 0 6.81 0a3.40 3.40 0 1 0 -6.81 0M574.20 455.46a3.40 3.40 0 1 0 6.81 0a3.40 3.40 0 1 0 -6.81 0M574.20 466.69a3.40 3.40 0 1 0 6.81 0a3.40 3.40 0 1 0 -6.81 0M574.20 477.92a3.40 3.40 0 1 0 6.81 0a3.40 3.40 0 1 0 -6.81 0M574.20 489.15a3.40 3.40 0 1 0 6.81 0a3.40 3.40 0 1 0 -6.81 0M574.20 500.38a3.40 3.40 0 1 0 6.81 0a3.40 3.40 0 1 0 -6.81 0M574.20 511.62a3.40 3.40 0 1 0 6.81 0a3.40 3.40 0 1 0 -6.81 0M574.20 522.85a3.40 3.40 0 1 0 6.81 0a3.40 3.40 0 1 0 -6.81 0M574.20 534.08a3.40 3.40 0 1 0 6.81 0a3.40 3.40 0 1 0 -6.81 0M574.20 545.31a3.40 3.40 0 1 0 6.81 0a3.40 3.40 0 1 0 -6.81 0M574.20 556.54a3.40 3.40 0 1 0 6.81 0a3.40 3.40 0 1 0 -6.81 0M574.20 567.77a3.40 3.40 0 1 0 6.81 0a3.40 3.40 0 1 0 -6.81 0M574.20 579.00a3.40 3.40 0 1 0 6.81 0a3.40 3.40 0 1 0 -6.81 0M574.20 590.23a3.40 3.40 0 1 0 6.81 0a3.40 3.40 0 1 0 -6.81 0M574.20 601.46a3.40 3.40 0 1 0 6.81 0a3.40 3.40 0 1 0 -6.81 0M574.20 612.69a3.40 3.40 0 1 0 6.81 0a3.40 3.40 0 1 0 -6.81 0M574.20 623.92a3.40 3.40 0 1 0 6.81 0a3.40 3.40 0 1 0 -6.81 0M574.20 635.15a3.40 3.40 0 1 0 6.81 0a3.40 3.40 0 1 0 -6.81 0M574.20 646.38a3.40 3.40 0 1 0 6.81 0a3.40 3.40 0 1 0 -6.81 0M614.47 73.62a3.40 3.40 0 1 0 6.81 0a3.40 3.40 0 1 0 -6.81 0M614.47 84.85a3.40 3.40 0 1 0 6.81 0a3.40 3.40 0 1 0 -6.81 0M614.47 96.08a3.40 3.40 0 1 0 6.81 0a3.40 3.40 0 1 0 -6.81 0M614.47 107.31a3.40 3.40 0 1 0 6.81 0a3.40 3.40 0 1 0 -6.81 0M614.47 118.54a3.40 3.40 0 1 0 6.81 0a3.40 3.40 0 1 0 -6.81 0M614.47 129.77a3.40 3.40 0 1 0 6.81 0a3.40 3.40 0 1 0 -6.81 0M614.47 141.00a3.40 3.40 0 1 0 6.81 0a3.40 3.40 0 1 0 -6.81 0M614.47 152.23a3.40 3.40 0 1 0 6.81 0a3.40 3.40 0 1 0 -6.81 0M614.47 163.46a3.40 3.40 0 1 0 6.81 0a3.40 3.40 0 1 0 -6.81 0M614.47 174.69a3.40 3.40 0 1 0 6.81 0a3.40 3.40 0 1 0 -6.81 0M614.47 185.92a3.40 3.40 0 1 0 6.81 0a3.40 3.40 0 1 0 -6.81 0M614.47 197.15a3.40 3.40 0 1 0 6.81 0a3.40 3.40 0 1 0 -6.81 0M614.47 208.38a3.40 3.40 0 1 0 6.81 0a3.40 3.40 0 1 0 -6.81 0M614.47 219.62a3.40 3.40 0 1 0 6.81 0a3.40 3.40 0 1 0 -6.81 0M614.47 230.85a3.40 3.40 0 1 0 6.81 0a3.40 3.40 0 1 0 -6.81 0M614.47 242.08a3.40 3.40 0 1 0 6.81 0a3.40 3.40 0 1 0 -6.81 0M614.47 253.31a3.40 3.40 0 1 0 6.81 0a3.40 3.40 0 1 0 -6.81 0M614.47 264.54a3.40 3.40 0 1 0 6.81 0a3.40 3.40 0 1 0 -6.81 0M614.47 275.77a3.40 3.40 0 1 0 6.81 0a3.40 3.40 0 1 0 -6.81 0M614.47 287.00a3.40 3.40 0 1 0 6.81 0a3.40 3.40 0 1 0 -6.81 0M614.47 298.23a3.40 3.40 0 1 0 6.81 0a3.40 3.40 0 1 0 -6.81 0M614.47 309.46a3.40 3.40 0 1 0 6.81 0a3.40 3.40 0 1 0 -6.81 0M614.47 320.69a3.40 3.40 0 1 0 6.81 0a3.40 3.40 0 1 0 -6.81 0M614.47 331.92a3.40 3.40 0 1 0 6.81 0a3.40 3.40 0 1 0 -6.81 0M614.47 343.15a3.40 3.40 0 1 0 6.81 0a3.40 3.40 0 1 0 -6.81 0M614.47 354.38a3.40 3.40 0 1 0 6.81 0a3.40 3.40 0 1 0 -6.81 0M614.47 365.62a3.40 3.40 0 1 0 6.81 0a3.40 3.40 0 1 0 -6.81 0M614.47 376.85a3.40 3.40 0 1 0 6.81 0a3.40 3.40 0 1 0 -6.81 0M614.47 388.08a3.40 3.40 0 1 0 6.81 0a3.40 3.40 0 1 0 -6.81 0M614.47 399.31a3.40 3.40 0 1 0 6.81 0a3.40 3.40 0 1 0 -6.81 0M614.47 410.54a3.40 3.40 0 1 0 6.81 0a3.40 3.40 0 1 0 -6.81 0M614.47 421.77a3.40 3.40 0 1 0 6.81 0a3.40 3.40 0 1 0 -6.81 0M614.47 433.00a3.40 3.40 0 1 0 6.81 0a3.40 3.40 0 1 0 -6.81 0M614.47 444.23a3.40 3.40 0 1 0 6.81 0a3.40 3.40 0 1 0 -6.81 0M614.47 455.46a3.40 3.40 0 1 0 6.81 0a3.40 3.40 0 1 0 -6.81 0M614.47 466.69a3.40 3.40 0 1 0 6.81 0a3.40 3.40 0 1 0 -6.81 0M614.47 477.92a3.40 3.40 0 1 0 6.81 0a3.40 3.40 0 1 0 -6.81 0M614.47 489.15a3.40 3.40 0 1 0 6.81 0a3.40 3.40 0 1 0 -6.81 0M614.47 500.38a3.40 3.40 0 1 0 6.81 0a3.40 3.40 0 1 0 -6.81 0M614.47 511.62a3.40 3.40 0 1 0 6.81 0a3.40 3.40 0 1 0 -6.81 0M614.47 522.85a3.40 3.40 0 1 0 6.81 0a3.40 3.40 0 1 0 -6.81 0M614.47 534.08a3.40 3.40 0 1 0 6.81 0a3.40 3.40 0 1 0 -6.81 0M614.47 545.31a3.40 3.40 0 1 0 6.81 0a3.40 3.40 0 1 0 -6.81 0M614.47 556.54a3.40 3.40 0 1 0 6.81 0a3.40 3.40 0 1 0 -6.81 0M614.47 567.77a3.40 3.40 0 1 0 6.81 0a3.40 3.40 0 1 0 -6.81 0M614.47 579.00a3.40 3.40 0 1 0 6.81 0a3.40 3.40 0 1 0 -6.81 0M614.47 590.23a3.40 3.40 0 1 0 6.81 0a3.40 3.40 0 1 0 -6.81 0M614.47 601.46a3.40 3.40 0 1 0 6.81 0a3.40 3.40 0 1 0 -6.81 0M614.47 612.69a3.40 3.40 0 1 0 6.81 0a3.40 3.40 0 1 0 -6.81 0M614.47 623.92a3.40 3.40 0 1 0 6.81 0a3.40 3.40 0 1 0 -6.81 0M614.47 635.15a3.40 3.40 0 1 0 6.81 0a3.40 3.40 0 1 0 -6.81 0M614.47 646.38a3.40 3.40 0 1 0 6.81 0a3.40 3.40 0 1 0 -6.81 0M654.74 73.62a3.40 3.40 0 1 0 6.81 0a3.40 3.40 0 1 0 -6.81 0M654.74 84.85a3.40 3.40 0 1 0 6.81 0a3.40 3.40 0 1 0 -6.81 0M654.74 96.08a3.40 3.40 0 1 0 6.81 0a3.40 3.40 0 1 0 -6.81 0M654.74 107.31a3.40 3.40 0 1 0 6.81 0a3.40 3.40 0 1 0 -6.81 0M654.74 118.54a3.40 3.40 0 1 0 6.81 0a3.40 3.40 0 1 0 -6.81 0M654.74 129.77a3.40 3.40 0 1 0 6.81 0a3.40 3.40 0 1 0 -6.81 0M654.74 141.00a3.40 3.40 0 1 0 6.81 0a3.40 3.40 0 1 0 -6.81 0M654.74 152.23a3.40 3.40 0 1 0 6.81 0a3.40 3.40 0 1 0 -6.81 0M654.74 163.46a3.40 3.40 0 1 0 6.81 0a3.40 3.40 0 1 0 -6.81 0M654.74 174.69a3.40 3.40 0 1 0 6.81 0a3.40 3.40 0 1 0 -6.81 0M654.74 185.92a3.40 3.40 0 1 0 6.81 0a3.40 3.40 0 1 0 -6.81 0M654.74 197.15a3.40 3.40 0 1 0 6.81 0a3.40 3.40 0 1 0 -6.81 0M654.74 208.38a3.40 3.40 0 1 0 6.81 0a3.40 3.40 0 1 0 -6.81 0M654.74 219.62a3.40 3.40 0 1 0 6.81 0a3.40 3.40 0 1 0 -6.81 0M654.74 230.85a3.40 3.40 0 1 0 6.81 0a3.40 3.40 0 1 0 -6.81 0M654.74 242.08a3.40 3.40 0 1 0 6.81 0a3.40 3.40 0 1 0 -6.81 0M654.74 253.31a3.40 3.40 0 1 0 6.81 0a3.40 3.40 0 1 0 -6.81 0M654.74 264.54a3.40 3.40 0 1 0 6.81 0a3.40 3.40 0 1 0 -6.81 0M654.74 275.77a3.40 3.40 0 1 0 6.81 0a3.40 3.40 0 1 0 -6.81 0M654.74 287.00a3.40 3.40 0 1 0 6.81 0a3.40 3.40 0 1 0 -6.81 0M654.74 298.23a3.40 3.40 0 1 0 6.81 0a3.40 3.40 0 1 0 -6.81 0M654.74 309.46a3.40 3.40 0 1 0 6.81 0a3.40 3.40 0 1 0 -6.81 0M654.74 320.69a3.40 3.40 0 1 0 6.81 0a3.40 3.40 0 1 0 -6.81 0M654.74 331.92a3.40 3.40 0 1 0 6.81 0a3.40 3.40 0 1 0 -6.81 0M654.74 343.15a3.40 3.40 0 1 0 6.81 0a3.40 3.40 0 1 0 -6.81 0M654.74 354.38a3.40 3.40 0 1 0 6.81 0a3.40 3.40 0 1 0 -6.81 0M654.74 365.62a3.40 3.40 0 1 0 6.81 0a3.40 3.40 0 1 0 -6.81 0M654.74 376.85a3.40 3.40 0 1 0 6.81 0a3.40 3.40 0 1 0 -6.81 0M654.74 388.08a3.40 3.40 0 1 0 6.81 0a3.40 3.40 0 1 0 -6.81 0M654.74 399.31a3.40 3.40 0 1 0 6.81 0a3.40 3.40 0 1 0 -6.81 0M654.74 410.54a3.40 3.40 0 1 0 6.81 0a3.40 3.40 0 1 0 -6.81 0M654.74 421.77a3.40 3.40 0 1 0 6.81 0a3.40 3.40 0 1 0 -6.81 0M654.74 433.00a3.40 3.40 0 1 0 6.81 0a3.40 3.40 0 1 0 -6.81 0M654.74 444.23a3.40 3.40 0 1 0 6.81 0a3.40 3.40 0 1 0 -6.81 0M654.74 455.46a3.40 3.40 0 1 0 6.81 0a3.40 3.40 0 1 0 -6.81 0M654.74 466.69a3.40 3.40 0 1 0 6.81 0a3.40 3.40 0 1 0 -6.81 0M654.74 477.92a3.40 3.40 0 1 0 6.81 0a3.40 3.40 0 1 0 -6.81 0M654.74 489.15a3.40 3.40 0 1 0 6.81 0a3.40 3.40 0 1 0 -6.81 0M654.74 500.38a3.40 3.40 0 1 0 6.81 0a3.40 3.40 0 1 0 -6.81 0M654.74 511.62a3.40 3.40 0 1 0 6.81 0a3.40 3.40 0 1 0 -6.81 0M654.74 522.85a3.40 3.40 0 1 0 6.81 0a3.40 3.40 0 1 0 -6.81 0M654.74 534.08a3.40 3.40 0 1 0 6.81 0a3.40 3.40 0 1 0 -6.81 0M654.74 545.31a3.40 3.40 0 1 0 6.81 0a3.40 3.40 0 1 0 -6.81 0M654.74 556.54a3.40 3.40 0 1 0 6.81 0a3.40 3.40 0 1 0 -6.81 0M654.74 567.77a3.40 3.40 0 1 0 6.81 0a3.40 3.40 0 1 0 -6.81 0M654.74 579.00a3.40 3.40 0 1 0 6.81 0a3.40 3.40 0 1 0 -6.81 0M654.74 590.23a3.40 3.40 0 1 0 6.81 0a3.40 3.40 0 1 0 -6.81 0M654.74 601.46a3.40 3.40 0 1 0 6.81 0a3.40 3.40 0 1 0 -6.81 0M654.74 612.69a3.40 3.40 0 1 0 6.81 0a3.40 3.40 0 1 0 -6.81 0M654.74 623.92a3.40 3.40 0 1 0 6.81 0a3.40 3.40 0 1 0 -6.81 0M654.74 635.15a3.40 3.40 0 1 0 6.81 0a3.40 3.40 0 1 0 -6.81 0M654.74 646.38a3.40 3.40 0 1 0 6.81 0a3.40 3.40 0 1 0 -6.81 0M695.01 73.62a3.40 3.40 0 1 0 6.81 0a3.40 3.40 0 1 0 -6.81 0M695.01 84.85a3.40 3.40 0 1 0 6.81 0a3.40 3.40 0 1 0 -6.81 0M695.01 96.08a3.40 3.40 0 1 0 6.81 0a3.40 3.40 0 1 0 -6.81 0M695.01 107.31a3.40 3.40 0 1 0 6.81 0a3.40 3.40 0 1 0 -6.81 0M695.01 118.54a3.40 3.40 0 1 0 6.81 0a3.40 3.40 0 1 0 -6.81 0M695.01 129.77a3.40 3.40 0 1 0 6.81 0a3.40 3.40 0 1 0 -6.81 0M695.01 141.00a3.40 3.40 0 1 0 6.81 0a3.40 3.40 0 1 0 -6.81 0M695.01 152.23a3.40 3.40 0 1 0 6.81 0a3.40 3.40 0 1 0 -6.81 0M695.01 163.46a3.40 3.40 0 1 0 6.81 0a3.40 3.40 0 1 0 -6.81 0M695.01 174.69a3.40 3.40 0 1 0 6.81 0a3.40 3.40 0 1 0 -6.81 0M695.01 185.92a3.40 3.40 0 1 0 6.81 0a3.40 3.40 0 1 0 -6.81 0M695.01 197.15a3.40 3.40 0 1 0 6.81 0a3.40 3.40 0 1 0 -6.81 0M695.01 208.38a3.40 3.40 0 1 0 6.81 0a3.40 3.40 0 1 0 -6.81 0M695.01 219.62a3.40 3.40 0 1 0 6.81 0a3.40 3.40 0 1 0 -6.81 0M695.01 230.85a3.40 3.40 0 1 0 6.81 0a3.40 3.40 0 1 0 -6.81 0M695.01 242.08a3.40 3.40 0 1 0 6.81 0a3.40 3.40 0 1 0 -6.81 0M695.01 253.31a3.40 3.40 0 1 0 6.81 0a3.40 3.40 0 1 0 -6.81 0M695.01 264.54a3.40 3.40 0 1 0 6.81 0a3.40 3.40 0 1 0 -6.81 0M695.01 275.77a3.40 3.40 0 1 0 6.81 0a3.40 3.40 0 1 0 -6.81 0M695.01 287.00a3.40 3.40 0 1 0 6.81 0a3.40 3.40 0 1 0 -6.81 0M695.01 298.23a3.40 3.40 0 1 0 6.81 0a3.40 3.40 0 1 0 -6.81 0M695.01 309.46a3.40 3.40 0 1 0 6.81 0a3.40 3.40 0 1 0 -6.81 0M695.01 320.69a3.40 3.40 0 1 0 6.81 0a3.40 3.40 0 1 0 -6.81 0M695.01 331.92a3.40 3.40 0 1 0 6.81 0a3.40 3.40 0 1 0 -6.81 0M695.01 343.15a3.40 3.40 0 1 0 6.81 0a3.40 3.40 0 1 0 -6.81 0M695.01 354.38a3.40 3.40 0 1 0 6.81 0a3.40 3.40 0 1 0 -6.81 0M695.01 365.62a3.40 3.40 0 1 0 6.81 0a3.40 3.40 0 1 0 -6.81 0M695.01 376.85a3.40 3.40 0 1 0 6.81 0a3.40 3.40 0 1 0 -6.81 0M695.01 388.08a3.40 3.40 0 1 0 6.81 0a3.40 3.40 0 1 0 -6.81 0M695.01 399.31a3.40 3.40 0 1 0 6.81 0a3.40 3.40 0 1 0 -6.81 0M695.01 410.54a3.40 3.40 0 1 0 6.81 0a3.40 3.40 0 1 0 -6.81 0M695.01 421.77a3.40 3.40 0 1 0 6.81 0a3.40 3.40 0 1 0 -6.81 0M695.01 433.00a3.40 3.40 0 1 0 6.81 0a3.40 3.40 0 1 0 -6.81 0M695.01 444.23a3.40 3.40 0 1 0 6.81 0a3.40 3.40 0 1 0 -6.81 0M695.01 455.46a3.40 3.40 0 1 0 6.81 0a3.40 3.40 0 1 0 -6.81 0M695.01 466.69a3.40 3.40 0 1 0 6.81 0a3.40 3.40 0 1 0 -6.81 0M695.01 477.92a3.40 3.40 0 1 0 6.81 0a3.40 3.40 0 1 0 -6.81 0M695.01 489.15a3.40 3.40 0 1 0 6.81 0a3.40 3.40 0 1 0 -6.81 0M695.01 500.38a3.40 3.40 0 1 0 6.81 0a3.40 3.40 0 1 0 -6.81 0M695.01 511.62a3.40 3.40 0 1 0 6.81 0a3.40 3.40 0 1 0 -6.81 0M695.01 522.85a3.40 3.40 0 1 0 6.81 0a3.40 3.40 0 1 0 -6.81 0M695.01 534.08a3.40 3.40 0 1 0 6.81 0a3.40 3.40 0 1 0 -6.81 0M695.01 545.31a3.40 3.40 0 1 0 6.81 0a3.40 3.40 0 1 0 -6.81 0M695.01 556.54a3.40 3.40 0 1 0 6.81 0a3.40 3.40 0 1 0 -6.81 0M695.01 567.77a3.40 3.40 0 1 0 6.81 0a3.40 3.40 0 1 0 -6.81 0M695.01 579.00a3.40 3.40 0 1 0 6.81 0a3.40 3.40 0 1 0 -6.81 0M695.01 590.23a3.40 3.40 0 1 0 6.81 0a3.40 3.40 0 1 0 -6.81 0M695.01 601.46a3.40 3.40 0 1 0 6.81 0a3.40 3.40 0 1 0 -6.81 0M695.01 612.69a3.40 3.40 0 1 0 6.81 0a3.40 3.40 0 1 0 -6.81 0M695.01 623.92a3.40 3.40 0 1 0 6.81 0a3.40 3.40 0 1 0 -6.81 0M695.01 635.15a3.40 3.40 0 1 0 6.81 0a3.40 3.40 0 1 0 -6.81 0M695.01 646.38a3.40 3.40 0 1 0 6.81 0a3.40 3.40 0 1 0 -6.81 0M735.28 73.62a3.40 3.40 0 1 0 6.81 0a3.40 3.40 0 1 0 -6.81 0M735.28 84.85a3.40 3.40 0 1 0 6.81 0a3.40 3.40 0 1 0 -6.81 0M735.28 96.08a3.40 3.40 0 1 0 6.81 0a3.40 3.40 0 1 0 -6.81 0M735.28 107.31a3.40 3.40 0 1 0 6.81 0a3.40 3.40 0 1 0 -6.81 0M735.28 118.54a3.40 3.40 0 1 0 6.81 0a3.40 3.40 0 1 0 -6.81 0M735.28 129.77a3.40 3.40 0 1 0 6.81 0a3.40 3.40 0 1 0 -6.81 0M735.28 141.00a3.40 3.40 0 1 0 6.81 0a3.40 3.40 0 1 0 -6.81 0M735.28 152.23a3.40 3.40 0 1 0 6.81 0a3.40 3.40 0 1 0 -6.81 0M735.28 163.46a3.40 3.40 0 1 0 6.81 0a3.40 3.40 0 1 0 -6.81 0M735.28 174.69a3.40 3.40 0 1 0 6.81 0a3.40 3.40 0 1 0 -6.81 0M735.28 185.92a3.40 3.40 0 1 0 6.81 0a3.40 3.40 0 1 0 -6.81 0M735.28 197.15a3.40 3.40 0 1 0 6.81 0a3.40 3.40 0 1 0 -6.81 0M735.28 208.38a3.40 3.40 0 1 0 6.81 0a3.40 3.40 0 1 0 -6.81 0M735.28 219.62a3.40 3.40 0 1 0 6.81 0a3.40 3.40 0 1 0 -6.81 0M735.28 230.85a3.40 3.40 0 1 0 6.81 0a3.40 3.40 0 1 0 -6.81 0M735.28 242.08a3.40 3.40 0 1 0 6.81 0a3.40 3.40 0 1 0 -6.81 0M735.28 253.31a3.40 3.40 0 1 0 6.81 0a3.40 3.40 0 1 0 -6.81 0M735.28 264.54a3.40 3.40 0 1 0 6.81 0a3.40 3.40 0 1 0 -6.81 0M735.28 275.77a3.40 3.40 0 1 0 6.81 0a3.40 3.40 0 1 0 -6.81 0M735.28 287.00a3.40 3.40 0 1 0 6.81 0a3.40 3.40 0 1 0 -6.81 0M735.28 298.23a3.40 3.40 0 1 0 6.81 0a3.40 3.40 0 1 0 -6.81 0M735.28 309.46a3.40 3.40 0 1 0 6.81 0a3.40 3.40 0 1 0 -6.81 0M735.28 320.69a3.40 3.40 0 1 0 6.81 0a3.40 3.40 0 1 0 -6.81 0M735.28 331.92a3.40 3.40 0 1 0 6.81 0a3.40 3.40 0 1 0 -6.81 0M735.28 343.15a3.40 3.40 0 1 0 6.81 0a3.40 3.40 0 1 0 -6.81 0M735.28 354.38a3.40 3.40 0 1 0 6.81 0a3.40 3.40 0 1 0 -6.81 0M735.28 365.62a3.40 3.40 0 1 0 6.81 0a3.40 3.40 0 1 0 -6.81 0M735.28 376.85a3.40 3.40 0 1 0 6.81 0a3.40 3.40 0 1 0 -6.81 0M735.28 388.08a3.40 3.40 0 1 0 6.81 0a3.40 3.40 0 1 0 -6.81 0M735.28 399.31a3.40 3.40 0 1 0 6.81 0a3.40 3.40 0 1 0 -6.81 0M735.28 410.54a3.40 3.40 0 1 0 6.81 0a3.40 3.40 0 1 0 -6.81 0M735.28 421.77a3.40 3.40 0 1 0 6.81 0a3.40 3.40 0 1 0 -6.81 0M735.28 433.00a3.40 3.40 0 1 0 6.81 0a3.40 3.40 0 1 0 -6.81 0M735.28 444.23a3.40 3.40 0 1 0 6.81 0a3.40 3.40 0 1 0 -6.81 0M735.28 455.46a3.40 3.40 0 1 0 6.81 0a3.40 3.40 0 1 0 -6.81 0M735.28 466.69a3.40 3.40 0 1 0 6.81 0a3.40 3.40 0 1 0 -6.81 0M735.28 477.92a3.40 3.40 0 1 0 6.81 0a3.40 3.40 0 1 0 -6.81 0M735.28 489.15a3.40 3.40 0 1 0 6.81 0a3.40 3.40 0 1 0 -6.81 0M735.28 500.38a3.40 3.40 0 1 0 6.81 0a3.40 3.40 0 1 0 -6.81 0M735.28 511.62a3.40 3.40 0 1 0 6.81 0a3.40 3.40 0 1 0 -6.81 0M735.28 522.85a3.40 3.40 0 1 0 6.81 0a3.40 3.40 0 1 0 -6.81 0M735.28 534.08a3.40 3.40 0 1 0 6.81 0a3.40 3.40 0 1 0 -6.81 0M735.28 545.31a3.40 3.40 0 1 0 6.81 0a3.40 3.40 0 1 0 -6.81 0M735.28 556.54a3.40 3.40 0 1 0 6.81 0a3.40 3.40 0 1 0 -6.81 0M735.28 567.77a3.40 3.40 0 1 0 6.81 0a3.40 3.40 0 1 0 -6.81 0M735.28 579.00a3.40 3.40 0 1 0 6.81 0a3.40 3.40 0 1 0 -6.81 0M735.28 590.23a3.40 3.40 0 1 0 6.81 0a3.40 3.40 0 1 0 -6.81 0M735.28 601.46a3.40 3.40 0 1 0 6.81 0a3.40 3.40 0 1 0 -6.81 0M735.28 612.69a3.40 3.40 0 1 0 6.81 0a3.40 3.40 0 1 0 -6.81 0M735.28 623.92a3.40 3.40 0 1 0 6.81 0a3.40 3.40 0 1 0 -6.81 0M735.28 635.15a3.40 3.40 0 1 0 6.81 0a3.40 3.40 0 1 0 -6.81 0M735.28 646.38a3.40 3.40 0 1 0 6.81 0a3.40 3.40 0 1 0 -6.81 0M775.55 73.62a3.40 3.40 0 1 0 6.81 0a3.40 3.40 0 1 0 -6.81 0M775.55 84.85a3.40 3.40 0 1 0 6.81 0a3.40 3.40 0 1 0 -6.81 0M775.55 96.08a3.40 3.40 0 1 0 6.81 0a3.40 3.40 0 1 0 -6.81 0M775.55 107.31a3.40 3.40 0 1 0 6.81 0a3.40 3.40 0 1 0 -6.81 0M775.55 118.54a3.40 3.40 0 1 0 6.81 0a3.40 3.40 0 1 0 -6.81 0M775.55 129.77a3.40 3.40 0 1 0 6.81 0a3.40 3.40 0 1 0 -6.81 0M775.55 141.00a3.40 3.40 0 1 0 6.81 0a3.40 3.40 0 1 0 -6.81 0M775.55 152.23a3.40 3.40 0 1 0 6.81 0a3.40 3.40 0 1 0 -6.81 0M775.55 163.46a3.40 3.40 0 1 0 6.81 0a3.40 3.40 0 1 0 -6.81 0M775.55 174.69a3.40 3.40 0 1 0 6.81 0a3.40 3.40 0 1 0 -6.81 0M775.55 185.92a3.40 3.40 0 1 0 6.81 0a3.40 3.40 0 1 0 -6.81 0M775.55 197.15a3.40 3.40 0 1 0 6.81 0a3.40 3.40 0 1 0 -6.81 0M775.55 208.38a3.40 3.40 0 1 0 6.81 0a3.40 3.40 0 1 0 -6.81 0M775.55 219.62a3.40 3.40 0 1 0 6.81 0a3.40 3.40 0 1 0 -6.81 0M775.55 230.85a3.40 3.40 0 1 0 6.81 0a3.40 3.40 0 1 0 -6.81 0M775.55 242.08a3.40 3.40 0 1 0 6.81 0a3.40 3.40 0 1 0 -6.81 0M775.55 253.31a3.40 3.40 0 1 0 6.81 0a3.40 3.40 0 1 0 -6.81 0M775.55 264.54a3.40 3.40 0 1 0 6.81 0a3.40 3.40 0 1 0 -6.81 0M775.55 275.77a3.40 3.40 0 1 0 6.81 0a3.40 3.40 0 1 0 -6.81 0M775.55 287.00a3.40 3.40 0 1 0 6.81 0a3.40 3.40 0 1 0 -6.81 0M775.55 298.23a3.40 3.40 0 1 0 6.81 0a3.40 3.40 0 1 0 -6.81 0M775.55 309.46a3.40 3.40 0 1 0 6.81 0a3.40 3.40 0 1 0 -6.81 0M775.55 320.69a3.40 3.40 0 1 0 6.81 0a3.40 3.40 0 1 0 -6.81 0M775.55 331.92a3.40 3.40 0 1 0 6.81 0a3.40 3.40 0 1 0 -6.81 0M775.55 343.15a3.40 3.40 0 1 0 6.81 0a3.40 3.40 0 1 0 -6.81 0M775.55 354.38a3.40 3.40 0 1 0 6.81 0a3.40 3.40 0 1 0 -6.81 0M775.55 365.62a3.40 3.40 0 1 0 6.81 0a3.40 3.40 0 1 0 -6.81 0M775.55 376.85a3.40 3.40 0 1 0 6.81 0a3.40 3.40 0 1 0 -6.81 0M775.55 388.08a3.40 3.40 0 1 0 6.81 0a3.40 3.40 0 1 0 -6.81 0M775.55 399.31a3.40 3.40 0 1 0 6.81 0a3.40 3.40 0 1 0 -6.81 0M775.55 410.54a3.40 3.40 0 1 0 6.81 0a3.40 3.40 0 1 0 -6.81 0M775.55 421.77a3.40 3.40 0 1 0 6.81 0a3.40 3.40 0 1 0 -6.81 0M775.55 433.00a3.40 3.40 0 1 0 6.81 0a3.40 3.40 0 1 0 -6.81 0M775.55 444.23a3.40 3.40 0 1 0 6.81 0a3.40 3.40 0 1 0 -6.81 0M775.55 455.46a3.40 3.40 0 1 0 6.81 0a3.40 3.40 0 1 0 -6.81 0M775.55 466.69a3.40 3.40 0 1 0 6.81 0a3.40 3.40 0 1 0 -6.81 0M775.55 477.92a3.40 3.40 0 1 0 6.81 0a3.40 3.40 0 1 0 -6.81 0M775.55 489.15a3.40 3.40 0 1 0 6.81 0a3.40 3.40 0 1 0 -6.81 0M775.55 500.38a3.40 3.40 0 1 0 6.81 0a3.40 3.40 0 1 0 -6.81 0M775.55 511.62a3.40 3.40 0 1 0 6.81 0a3.40 3.40 0 1 0 -6.81 0M775.55 522.85a3.40 3.40 0 1 0 6.81 0a3.40 3.40 0 1 0 -6.81 0M775.55 534.08a3.40 3.40 0 1 0 6.81 0a3.40 3.40 0 1 0 -6.81 0M775.55 545.31a3.40 3.40 0 1 0 6.81 0a3.40 3.40 0 1 0 -6.81 0M775.55 556.54a3.40 3.40 0 1 0 6.81 0a3.40 3.40 0 1 0 -6.81 0M775.55 567.77a3.40 3.40 0 1 0 6.81 0a3.40 3.40 0 1 0 -6.81 0M775.55 579.00a3.40 3.40 0 1 0 6.81 0a3.40 3.40 0 1 0 -6.81 0M775.55 590.23a3.40 3.40 0 1 0 6.81 0a3.40 3.40 0 1 0 -6.81 0M775.55 601.46a3.40 3.40 0 1 0 6.81 0a3.40 3.40 0 1 0 -6.81 0M775.55 612.69a3.40 3.40 0 1 0 6.81 0a3.40 3.40 0 1 0 -6.81 0M775.55 623.92a3.40 3.40 0 1 0 6.81 0a3.40 3.40 0 1 0 -6.81 0M775.55 635.15a3.40 3.40 0 1 0 6.81 0a3.40 3.40 0 1 0 -6.81 0M775.55 646.38a3.40 3.40 0 1 0 6.81 0a3.40 3.40 0 1 0 -6.81 0M815.82 73.62a3.40 3.40 0 1 0 6.81 0a3.40 3.40 0 1 0 -6.81 0M815.82 84.85a3.40 3.40 0 1 0 6.81 0a3.40 3.40 0 1 0 -6.81 0M815.82 96.08a3.40 3.40 0 1 0 6.81 0a3.40 3.40 0 1 0 -6.81 0M815.82 107.31a3.40 3.40 0 1 0 6.81 0a3.40 3.40 0 1 0 -6.81 0M815.82 118.54a3.40 3.40 0 1 0 6.81 0a3.40 3.40 0 1 0 -6.81 0M815.82 129.77a3.40 3.40 0 1 0 6.81 0a3.40 3.40 0 1 0 -6.81 0M815.82 141.00a3.40 3.40 0 1 0 6.81 0a3.40 3.40 0 1 0 -6.81 0M815.82 152.23a3.40 3.40 0 1 0 6.81 0a3.40 3.40 0 1 0 -6.81 0M815.82 163.46a3.40 3.40 0 1 0 6.81 0a3.40 3.40 0 1 0 -6.81 0M815.82 174.69a3.40 3.40 0 1 0 6.81 0a3.40 3.40 0 1 0 -6.81 0M815.82 185.92a3.40 3.40 0 1 0 6.81 0a3.40 3.40 0 1 0 -6.81 0M815.82 197.15a3.40 3.40 0 1 0 6.81 0a3.40 3.40 0 1 0 -6.81 0M815.82 208.38a3.40 3.40 0 1 0 6.81 0a3.40 3.40 0 1 0 -6.81 0M815.82 219.62a3.40 3.40 0 1 0 6.81 0a3.40 3.40 0 1 0 -6.81 0M815.82 230.85a3.40 3.40 0 1 0 6.81 0a3.40 3.40 0 1 0 -6.81 0M815.82 242.08a3.40 3.40 0 1 0 6.81 0a3.40 3.40 0 1 0 -6.81 0M815.82 253.31a3.40 3.40 0 1 0 6.81 0a3.40 3.40 0 1 0 -6.81 0M815.82 264.54a3.40 3.40 0 1 0 6.81 0a3.40 3.40 0 1 0 -6.81 0M815.82 275.77a3.40 3.40 0 1 0 6.81 0a3.40 3.40 0 1 0 -6.81 0M815.82 287.00a3.40 3.40 0 1 0 6.81 0a3.40 3.40 0 1 0 -6.81 0M815.82 298.23a3.40 3.40 0 1 0 6.81 0a3.40 3.40 0 1 0 -6.81 0M815.82 309.46a3.40 3.40 0 1 0 6.81 0a3.40 3.40 0 1 0 -6.81 0M815.82 320.69a3.40 3.40 0 1 0 6.81 0a3.40 3.40 0 1 0 -6.81 0M815.82 331.92a3.40 3.40 0 1 0 6.81 0a3.40 3.40 0 1 0 -6.81 0M815.82 343.15a3.40 3.40 0 1 0 6.81 0a3.40 3.40 0 1 0 -6.81 0M815.82 354.38a3.40 3.40 0 1 0 6.81 0a3.40 3.40 0 1 0 -6.81 0M815.82 365.62a3.40 3.40 0 1 0 6.81 0a3.40 3.40 0 1 0 -6.81 0M815.82 376.85a3.40 3.40 0 1 0 6.81 0a3.40 3.40 0 1 0 -6.81 0M815.82 388.08a3.40 3.40 0 1 0 6.81 0a3.40 3.40 0 1 0 -6.81 0M815.82 399.31a3.40 3.40 0 1 0 6.81 0a3.40 3.40 0 1 0 -6.81 0M815.82 410.54a3.40 3.40 0 1 0 6.81 0a3.40 3.40 0 1 0 -6.81 0M815.82 421.77a3.40 3.40 0 1 0 6.81 0a3.40 3.40 0 1 0 -6.81 0M815.82 433.00a3.40 3.40 0 1 0 6.81 0a3.40 3.40 0 1 0 -6.81 0M815.82 444.23a3.40 3.40 0 1 0 6.81 0a3.40 3.40 0 1 0 -6.81 0M815.82 455.46a3.40 3.40 0 1 0 6.81 0a3.40 3.40 0 1 0 -6.81 0M815.82 466.69a3.40 3.40 0 1 0 6.81 0a3.40 3.40 0 1 0 -6.81 0M815.82 477.92a3.40 3.40 0 1 0 6.81 0a3.40 3.40 0 1 0 -6.81 0M815.82 489.15a3.40 3.40 0 1 0 6.81 0a3.40 3.40 0 1 0 -6.81 0M815.82 500.38a3.40 3.40 0 1 0 6.81 0a3.40 3.40 0 1 0 -6.81 0M815.82 511.62a3.40 3.40 0 1 0 6.81 0a3.40 3.40 0 1 0 -6.81 0M815.82 522.85a3.40 3.40 0 1 0 6.81 0a3.40 3.40 0 1 0 -6.81 0M815.82 534.08a3.40 3.40 0 1 0 6.81 0a3.40 3.40 0 1 0 -6.81 0M815.82 545.31a3.40 3.40 0 1 0 6.81 0a3.40 3.40 0 1 0 -6.81 0M815.82 556.54a3.40 3.40 0 1 0 6.81 0a3.40 3.40 0 1 0 -6.81 0M815.82 567.77a3.40 3.40 0 1 0 6.81 0a3.40 3.40 0 1 0 -6.81 0M815.82 579.00a3.40 3.40 0 1 0 6.81 0a3.40 3.40 0 1 0 -6.81 0M815.82 590.23a3.40 3.40 0 1 0 6.81 0a3.40 3.40 0 1 0 -6.81 0M815.82 601.46a3.40 3.40 0 1 0 6.81 0a3.40 3.40 0 1 0 -6.81 0M815.82 612.69a3.40 3.40 0 1 0 6.81 0a3.40 3.40 0 1 0 -6.81 0M815.82 623.92a3.40 3.40 0 1 0 6.81 0a3.40 3.40 0 1 0 -6.81 0M815.82 635.15a3.40 3.40 0 1 0 6.81 0a3.40 3.40 0 1 0 -6.81 0M815.82 646.38a3.40 3.40 0 1 0 6.81 0a3.40 3.40 0 1 0 -6.81 0M856.08 73.62a3.40 3.40 0 1 0 6.81 0a3.40 3.40 0 1 0 -6.81 0M856.08 84.85a3.40 3.40 0 1 0 6.81 0a3.40 3.40 0 1 0 -6.81 0M856.08 96.08a3.40 3.40 0 1 0 6.81 0a3.40 3.40 0 1 0 -6.81 0M856.08 107.31a3.40 3.40 0 1 0 6.81 0a3.40 3.40 0 1 0 -6.81 0M856.08 118.54a3.40 3.40 0 1 0 6.81 0a3.40 3.40 0 1 0 -6.81 0M856.08 129.77a3.40 3.40 0 1 0 6.81 0a3.40 3.40 0 1 0 -6.81 0M856.08 141.00a3.40 3.40 0 1 0 6.81 0a3.40 3.40 0 1 0 -6.81 0M856.08 152.23a3.40 3.40 0 1 0 6.81 0a3.40 3.40 0 1 0 -6.81 0M856.08 163.46a3.40 3.40 0 1 0 6.81 0a3.40 3.40 0 1 0 -6.81 0M856.08 174.69a3.40 3.40 0 1 0 6.81 0a3.40 3.40 0 1 0 -6.81 0M856.08 185.92a3.40 3.40 0 1 0 6.81 0a3.40 3.40 0 1 0 -6.81 0M856.08 197.15a3.40 3.40 0 1 0 6.81 0a3.40 3.40 0 1 0 -6.81 0M856.08 208.38a3.40 3.40 0 1 0 6.81 0a3.40 3.40 0 1 0 -6.81 0M856.08 219.62a3.40 3.40 0 1 0 6.81 0a3.40 3.40 0 1 0 -6.81 0M856.08 230.85a3.40 3.40 0 1 0 6.81 0a3.40 3.40 0 1 0 -6.81 0M856.08 242.08a3.40 3.40 0 1 0 6.81 0a3.40 3.40 0 1 0 -6.81 0M856.08 253.31a3.40 3.40 0 1 0 6.81 0a3.40 3.40 0 1 0 -6.81 0M856.08 264.54a3.40 3.40 0 1 0 6.81 0a3.40 3.40 0 1 0 -6.81 0M856.08 275.77a3.40 3.40 0 1 0 6.81 0a3.40 3.40 0 1 0 -6.81 0M856.08 287.00a3.40 3.40 0 1 0 6.81 0a3.40 3.40 0 1 0 -6.81 0M856.08 298.23a3.40 3.40 0 1 0 6.81 0a3.40 3.40 0 1 0 -6.81 0M856.08 309.46a3.40 3.40 0 1 0 6.81 0a3.40 3.40 0 1 0 -6.81 0M856.08 320.69a3.40 3.40 0 1 0 6.81 0a3.40 3.40 0 1 0 -6.81 0M856.08 331.92a3.40 3.40 0 1 0 6.81 0a3.40 3.40 0 1 0 -6.81 0M856.08 343.15a3.40 3.40 0 1 0 6.81 0a3.40 3.40 0 1 0 -6.81 0M856.08 354.38a3.40 3.40 0 1 0 6.81 0a3.40 3.40 0 1 0 -6.81 0M856.08 365.62a3.40 3.40 0 1 0 6.81 0a3.40 3.40 0 1 0 -6.81 0M856.08 376.85a3.40 3.40 0 1 0 6.81 0a3.40 3.40 0 1 0 -6.81 0M856.08 388.08a3.40 3.40 0 1 0 6.81 0a3.40 3.40 0 1 0 -6.81 0M856.08 399.31a3.40 3.40 0 1 0 6.81 0a3.40 3.40 0 1 0 -6.81 0M856.08 410.54a3.40 3.40 0 1 0 6.81 0a3.40 3.40 0 1 0 -6.81 0M856.08 421.77a3.40 3.40 0 1 0 6.81 0a3.40 3.40 0 1 0 -6.81 0M856.08 433.00a3.40 3.40 0 1 0 6.81 0a3.40 3.40 0 1 0 -6.81 0M856.08 444.23a3.40 3.40 0 1 0 6.81 0a3.40 3.40 0 1 0 -6.81 0M856.08 455.46a3.40 3.40 0 1 0 6.81 0a3.40 3.40 0 1 0 -6.81 0M856.08 466.69a3.40 3.40 0 1 0 6.81 0a3.40 3.40 0 1 0 -6.81 0M856.08 477.92a3.40 3.40 0 1 0 6.81 0a3.40 3.40 0 1 0 -6.81 0M856.08 489.15a3.40 3.40 0 1 0 6.81 0a3.40 3.40 0 1 0 -6.81 0M856.08 500.38a3.40 3.40 0 1 0 6.81 0a3.40 3.40 0 1 0 -6.81 0M856.08 511.62a3.40 3.40 0 1 0 6.81 0a3.40 3.40 0 1 0 -6.81 0M856.08 522.85a3.40 3.40 0 1 0 6.81 0a3.40 3.40 0 1 0 -6.81 0M856.08 534.08a3.40 3.40 0 1 0 6.81 0a3.40 3.40 0 1 0 -6.81 0M856.08 545.31a3.40 3.40 0 1 0 6.81 0a3.40 3.40 0 1 0 -6.81 0M856.08 556.54a3.40 3.40 0 1 0 6.81 0a3.40 3.40 0 1 0 -6.81 0M856.08 567.77a3.40 3.40 0 1 0 6.81 0a3.40 3.40 0 1 0 -6.81 0M856.08 579.00a3.40 3.40 0 1 0 6.81 0a3.40 3.40 0 1 0 -6.81 0M856.08 590.23a3.40 3.40 0 1 0 6.81 0a3.40 3.40 0 1 0 -6.81 0M856.08 601.46a3.40 3.40 0 1 0 6.81 0a3.40 3.40 0 1 0 -6.81 0M856.08 612.69a3.40 3.40 0 1 0 6.81 0a3.40 3.40 0 1 0 -6.81 0M856.08 623.92a3.40 3.40 0 1 0 6.81 0a3.40 3.40 0 1 0 -6.81 0M856.08 635.15a3.40 3.40 0 1 0 6.81 0a3.40 3.40 0 1 0 -6.81 0M856.08 646.38a3.40 3.40 0 1 0 6.81 0a3.40 3.40 0 1 0 -6.81 0M896.35 73.62a3.40 3.40 0 1 0 6.81 0a3.40 3.40 0 1 0 -6.81 0M896.35 84.85a3.40 3.40 0 1 0 6.81 0a3.40 3.40 0 1 0 -6.81 0M896.35 96.08a3.40 3.40 0 1 0 6.81 0a3.40 3.40 0 1 0 -6.81 0M896.35 107.31a3.40 3.40 0 1 0 6.81 0a3.40 3.40 0 1 0 -6.81 0M896.35 118.54a3.40 3.40 0 1 0 6.81 0a3.40 3.40 0 1 0 -6.81 0M896.35 129.77a3.40 3.40 0 1 0 6.81 0a3.40 3.40 0 1 0 -6.81 0M896.35 141.00a3.40 3.40 0 1 0 6.81 0a3.40 3.40 0 1 0 -6.81 0M896.35 152.23a3.40 3.40 0 1 0 6.81 0a3.40 3.40 0 1 0 -6.81 0M896.35 163.46a3.40 3.40 0 1 0 6.81 0a3.40 3.40 0 1 0 -6.81 0M896.35 174.69a3.40 3.40 0 1 0 6.81 0a3.40 3.40 0 1 0 -6.81 0M896.35 185.92a3.40 3.40 0 1 0 6.81 0a3.40 3.40 0 1 0 -6.81 0M896.35 197.15a3.40 3.40 0 1 0 6.81 0a3.40 3.40 0 1 0 -6.81 0M896.35 208.38a3.40 3.40 0 1 0 6.81 0a3.40 3.40 0 1 0 -6.81 0M896.35 219.62a3.40 3.40 0 1 0 6.81 0a3.40 3.40 0 1 0 -6.81 0M896.35 230.85a3.40 3.40 0 1 0 6.81 0a3.40 3.40 0 1 0 -6.81 0M896.35 242.08a3.40 3.40 0 1 0 6.81 0a3.40 3.40 0 1 0 -6.81 0M896.35 253.31a3.40 3.40 0 1 0 6.81 0a3.40 3.40 0 1 0 -6.81 0M896.35 264.54a3.40 3.40 0 1 0 6.81 0a3.40 3.40 0 1 0 -6.81 0M896.35 275.77a3.40 3.40 0 1 0 6.81 0a3.40 3.40 0 1 0 -6.81 0M896.35 287.00a3.40 3.40 0 1 0 6.81 0a3.40 3.40 0 1 0 -6.81 0M896.35 298.23a3.40 3.40 0 1 0 6.81 0a3.40 3.40 0 1 0 -6.81 0M896.35 309.46a3.40 3.40 0 1 0 6.81 0a3.40 3.40 0 1 0 -6.81 0M896.35 320.69a3.40 3.40 0 1 0 6.81 0a3.40 3.40 0 1 0 -6.81 0M896.35 331.92a3.40 3.40 0 1 0 6.81 0a3.40 3.40 0 1 0 -6.81 0M896.35 343.15a3.40 3.40 0 1 0 6.81 0a3.40 3.40 0 1 0 -6.81 0M896.35 354.38a3.40 3.40 0 1 0 6.81 0a3.40 3.40 0 1 0 -6.81 0M896.35 365.62a3.40 3.40 0 1 0 6.81 0a3.40 3.40 0 1 0 -6.81 0M896.35 376.85a3.40 3.40 0 1 0 6.81 0a3.40 3.40 0 1 0 -6.81 0M896.35 388.08a3.40 3.40 0 1 0 6.81 0a3.40 3.40 0 1 0 -6.81 0M896.35 399.31a3.40 3.40 0 1 0 6.81 0a3.40 3.40 0 1 0 -6.81 0M896.35 410.54a3.40 3.40 0 1 0 6.81 0a3.40 3.40 0 1 0 -6.81 0M896.35 421.77a3.40 3.40 0 1 0 6.81 0a3.40 3.40 0 1 0 -6.81 0M896.35 433.00a3.40 3.40 0 1 0 6.81 0a3.40 3.40 0 1 0 -6.81 0M896.35 444.23a3.40 3.40 0 1 0 6.81 0a3.40 3.40 0 1 0 -6.81 0M896.35 455.46a3.40 3.40 0 1 0 6.81 0a3.40 3.40 0 1 0 -6.81 0M896.35 466.69a3.40 3.40 0 1 0 6.81 0a3.40 3.40 0 1 0 -6.81 0M896.35 477.92a3.40 3.40 0 1 0 6.81 0a3.40 3.40 0 1 0 -6.81 0M896.35 489.15a3.40 3.40 0 1 0 6.81 0a3.40 3.40 0 1 0 -6.81 0M896.35 500.38a3.40 3.40 0 1 0 6.81 0a3.40 3.40 0 1 0 -6.81 0M896.35 511.62a3.40 3.40 0 1 0 6.81 0a3.40 3.40 0 1 0 -6.81 0M896.35 522.85a3.40 3.40 0 1 0 6.81 0a3.40 3.40 0 1 0 -6.81 0M896.35 534.08a3.40 3.40 0 1 0 6.81 0a3.40 3.40 0 1 0 -6.81 0M896.35 545.31a3.40 3.40 0 1 0 6.81 0a3.40 3.40 0 1 0 -6.81 0M896.35 556.54a3.40 3.40 0 1 0 6.81 0a3.40 3.40 0 1 0 -6.81 0M896.35 567.77a3.40 3.40 0 1 0 6.81 0a3.40 3.40 0 1 0 -6.81 0M896.35 579.00a3.40 3.40 0 1 0 6.81 0a3.40 3.40 0 1 0 -6.81 0M896.35 590.23a3.40 3.40 0 1 0 6.81 0a3.40 3.40 0 1 0 -6.81 0M896.35 601.46a3.40 3.40 0 1 0 6.81 0a3.40 3.40 0 1 0 -6.81 0M896.35 612.69a3.40 3.40 0 1 0 6.81 0a3.40 3.40 0 1 0 -6.81 0M896.35 623.92a3.40 3.40 0 1 0 6.81 0a3.40 3.40 0 1 0 -6.81 0M896.35 635.15a3.40 3.40 0 1 0 6.81 0a3.40 3.40 0 1 0 -6.81 0M896.35 646.38a3.40 3.40 0 1 0 6.81 0a3.40 3.40 0 1 0 -6.81 0M966.04 73.62a3.40 3.40 0 1 0 6.81 0a3.40 3.40 0 1 0 -6.81 0M966.04 84.85a3.40 3.40 0 1 0 6.81 0a3.40 3.40 0 1 0 -6.81 0M966.04 96.08a3.40 3.40 0 1 0 6.81 0a3.40 3.40 0 1 0 -6.81 0M966.04 107.31a3.40 3.40 0 1 0 6.81 0a3.40 3.40 0 1 0 -6.81 0M966.04 118.54a3.40 3.40 0 1 0 6.81 0a3.40 3.40 0 1 0 -6.81 0M966.04 129.77a3.40 3.40 0 1 0 6.81 0a3.40 3.40 0 1 0 -6.81 0M966.04 141.00a3.40 3.40 0 1 0 6.81 0a3.40 3.40 0 1 0 -6.81 0M966.04 152.23a3.40 3.40 0 1 0 6.81 0a3.40 3.40 0 1 0 -6.81 0M966.04 163.46a3.40 3.40 0 1 0 6.81 0a3.40 3.40 0 1 0 -6.81 0M966.04 174.69a3.40 3.40 0 1 0 6.81 0a3.40 3.40 0 1 0 -6.81 0M966.04 185.92a3.40 3.40 0 1 0 6.81 0a3.40 3.40 0 1 0 -6.81 0M966.04 197.15a3.40 3.40 0 1 0 6.81 0a3.40 3.40 0 1 0 -6.81 0M966.04 208.38a3.40 3.40 0 1 0 6.81 0a3.40 3.40 0 1 0 -6.81 0M966.04 219.62a3.40 3.40 0 1 0 6.81 0a3.40 3.40 0 1 0 -6.81 0M966.04 230.85a3.40 3.40 0 1 0 6.81 0a3.40 3.40 0 1 0 -6.81 0M966.04 242.08a3.40 3.40 0 1 0 6.81 0a3.40 3.40 0 1 0 -6.81 0M966.04 253.31a3.40 3.40 0 1 0 6.81 0a3.40 3.40 0 1 0 -6.81 0M966.04 264.54a3.40 3.40 0 1 0 6.81 0a3.40 3.40 0 1 0 -6.81 0M966.04 275.77a3.40 3.40 0 1 0 6.81 0a3.40 3.40 0 1 0 -6.81 0M966.04 287.00a3.40 3.40 0 1 0 6.81 0a3.40 3.40 0 1 0 -6.81 0M966.04 298.23a3.40 3.40 0 1 0 6.81 0a3.40 3.40 0 1 0 -6.81 0M966.04 309.46a3.40 3.40 0 1 0 6.81 0a3.40 3.40 0 1 0 -6.81 0M966.04 320.69a3.40 3.40 0 1 0 6.81 0a3.40 3.40 0 1 0 -6.81 0M966.04 331.92a3.40 3.40 0 1 0 6.81 0a3.40 3.40 0 1 0 -6.81 0M966.04 343.15a3.40 3.40 0 1 0 6.81 0a3.40 3.40 0 1 0 -6.81 0M966.04 354.38a3.40 3.40 0 1 0 6.81 0a3.40 3.40 0 1 0 -6.81 0M966.04 365.62a3.40 3.40 0 1 0 6.81 0a3.40 3.40 0 1 0 -6.81 0M966.04 376.85a3.40 3.40 0 1 0 6.81 0a3.40 3.40 0 1 0 -6.81 0M966.04 388.08a3.40 3.40 0 1 0 6.81 0a3.40 3.40 0 1 0 -6.81 0M966.04 399.31a3.40 3.40 0 1 0 6.81 0a3.40 3.40 0 1 0 -6.81 0M966.04 410.54a3.40 3.40 0 1 0 6.81 0a3.40 3.40 0 1 0 -6.81 0M966.04 421.77a3.40 3.40 0 1 0 6.81 0a3.40 3.40 0 1 0 -6.81 0M966.04 433.00a3.40 3.40 0 1 0 6.81 0a3.40 3.40 0 1 0 -6.81 0M966.04 444.23a3.40 3.40 0 1 0 6.81 0a3.40 3.40 0 1 0 -6.81 0M966.04 455.46a3.40 3.40 0 1 0 6.81 0a3.40 3.40 0 1 0 -6.81 0M966.04 466.69a3.40 3.40 0 1 0 6.81 0a3.40 3.40 0 1 0 -6.81 0M966.04 477.92a3.40 3.40 0 1 0 6.81 0a3.40 3.40 0 1 0 -6.81 0M966.04 489.15a3.40 3.40 0 1 0 6.81 0a3.40 3.40 0 1 0 -6.81 0M966.04 500.38a3.40 3.40 0 1 0 6.81 0a3.40 3.40 0 1 0 -6.81 0M966.04 511.62a3.40 3.40 0 1 0 6.81 0a3.40 3.40 0 1 0 -6.81 0M966.04 522.85a3.40 3.40 0 1 0 6.81 0a3.40 3.40 0 1 0 -6.81 0M966.04 534.08a3.40 3.40 0 1 0 6.81 0a3.40 3.40 0 1 0 -6.81 0M966.04 545.31a3.40 3.40 0 1 0 6.81 0a3.40 3.40 0 1 0 -6.81 0M966.04 556.54a3.40 3.40 0 1 0 6.81 0a3.40 3.40 0 1 0 -6.81 0M966.04 567.77a3.40 3.40 0 1 0 6.81 0a3.40 3.40 0 1 0 -6.81 0M966.04 579.00a3.40 3.40 0 1 0 6.81 0a3.40 3.40 0 1 0 -6.81 0M966.04 590.23a3.40 3.40 0 1 0 6.81 0a3.40 3.40 0 1 0 -6.81 0M966.04 601.46a3.40 3.40 0 1 0 6.81 0a3.40 3.40 0 1 0 -6.81 0M966.04 612.69a3.40 3.40 0 1 0 6.81 0a3.40 3.40 0 1 0 -6.81 0M966.04 623.92a3.40 3.40 0 1 0 6.81 0a3.40 3.40 0 1 0 -6.81 0M966.04 635.15a3.40 3.40 0 1 0 6.81 0a3.40 3.40 0 1 0 -6.81 0M966.04 646.38a3.40 3.40 0 1 0 6.81 0a3.40 3.40 0 1 0 -6.81 0M1006.31 73.62a3.40 3.40 0 1 0 6.81 0a3.40 3.40 0 1 0 -6.81 0M1006.31 84.85a3.40 3.40 0 1 0 6.81 0a3.40 3.40 0 1 0 -6.81 0M1006.31 96.08a3.40 3.40 0 1 0 6.81 0a3.40 3.40 0 1 0 -6.81 0M1006.31 107.31a3.40 3.40 0 1 0 6.81 0a3.40 3.40 0 1 0 -6.81 0M1006.31 118.54a3.40 3.40 0 1 0 6.81 0a3.40 3.40 0 1 0 -6.81 0M1006.31 129.77a3.40 3.40 0 1 0 6.81 0a3.40 3.40 0 1 0 -6.81 0M1006.31 141.00a3.40 3.40 0 1 0 6.81 0a3.40 3.40 0 1 0 -6.81 0M1006.31 152.23a3.40 3.40 0 1 0 6.81 0a3.40 3.40 0 1 0 -6.81 0M1006.31 163.46a3.40 3.40 0 1 0 6.81 0a3.40 3.40 0 1 0 -6.81 0M1006.31 174.69a3.40 3.40 0 1 0 6.81 0a3.40 3.40 0 1 0 -6.81 0M1006.31 185.92a3.40 3.40 0 1 0 6.81 0a3.40 3.40 0 1 0 -6.81 0M1006.31 197.15a3.40 3.40 0 1 0 6.81 0a3.40 3.40 0 1 0 -6.81 0M1006.31 208.38a3.40 3.40 0 1 0 6.81 0a3.40 3.40 0 1 0 -6.81 0M1006.31 219.62a3.40 3.40 0 1 0 6.81 0a3.40 3.40 0 1 0 -6.81 0M1006.31 230.85a3.40 3.40 0 1 0 6.81 0a3.40 3.40 0 1 0 -6.81 0M1006.31 242.08a3.40 3.40 0 1 0 6.81 0a3.40 3.40 0 1 0 -6.81 0M1006.31 253.31a3.40 3.40 0 1 0 6.81 0a3.40 3.40 0 1 0 -6.81 0M1006.31 264.54a3.40 3.40 0 1 0 6.81 0a3.40 3.40 0 1 0 -6.81 0M1006.31 275.77a3.40 3.40 0 1 0 6.81 0a3.40 3.40 0 1 0 -6.81 0M1006.31 287.00a3.40 3.40 0 1 0 6.81 0a3.40 3.40 0 1 0 -6.81 0M1006.31 298.23a3.40 3.40 0 1 0 6.81 0a3.40 3.40 0 1 0 -6.81 0M1006.31 309.46a3.40 3.40 0 1 0 6.81 0a3.40 3.40 0 1 0 -6.81 0M1006.31 320.69a3.40 3.40 0 1 0 6.81 0a3.40 3.40 0 1 0 -6.81 0M1006.31 331.92a3.40 3.40 0 1 0 6.81 0a3.40 3.40 0 1 0 -6.81 0M1006.31 343.15a3.40 3.40 0 1 0 6.81 0a3.40 3.40 0 1 0 -6.81 0M1006.31 354.38a3.40 3.40 0 1 0 6.81 0a3.40 3.40 0 1 0 -6.81 0M1006.31 365.62a3.40 3.40 0 1 0 6.81 0a3.40 3.40 0 1 0 -6.81 0M1006.31 376.85a3.40 3.40 0 1 0 6.81 0a3.40 3.40 0 1 0 -6.81 0M1006.31 388.08a3.40 3.40 0 1 0 6.81 0a3.40 3.40 0 1 0 -6.81 0M1006.31 399.31a3.40 3.40 0 1 0 6.81 0a3.40 3.40 0 1 0 -6.81 0M1006.31 410.54a3.40 3.40 0 1 0 6.81 0a3.40 3.40 0 1 0 -6.81 0M1006.31 421.77a3.40 3.40 0 1 0 6.81 0a3.40 3.40 0 1 0 -6.81 0M1006.31 433.00a3.40 3.40 0 1 0 6.81 0a3.40 3.40 0 1 0 -6.81 0M1006.31 444.23a3.40 3.40 0 1 0 6.81 0a3.40 3.40 0 1 0 -6.81 0M1006.31 455.46a3.40 3.40 0 1 0 6.81 0a3.40 3.40 0 1 0 -6.81 0M1006.31 466.69a3.40 3.40 0 1 0 6.81 0a3.40 3.40 0 1 0 -6.81 0M1006.31 477.92a3.40 3.40 0 1 0 6.81 0a3.40 3.40 0 1 0 -6.81 0M1006.31 489.15a3.40 3.40 0 1 0 6.81 0a3.40 3.40 0 1 0 -6.81 0M1006.31 500.38a3.40 3.40 0 1 0 6.81 0a3.40 3.40 0 1 0 -6.81 0M1006.31 511.62a3.40 3.40 0 1 0 6.81 0a3.40 3.40 0 1 0 -6.81 0M1006.31 522.85a3.40 3.40 0 1 0 6.81 0a3.40 3.40 0 1 0 -6.81 0M1006.31 534.08a3.40 3.40 0 1 0 6.81 0a3.40 3.40 0 1 0 -6.81 0M1006.31 545.31a3.40 3.40 0 1 0 6.81 0a3.40 3.40 0 1 0 -6.81 0M1006.31 556.54a3.40 3.40 0 1 0 6.81 0a3.40 3.40 0 1 0 -6.81 0M1006.31 567.77a3.40 3.40 0 1 0 6.81 0a3.40 3.40 0 1 0 -6.81 0M1006.31 579.00a3.40 3.40 0 1 0 6.81 0a3.40 3.40 0 1 0 -6.81 0M1006.31 590.23a3.40 3.40 0 1 0 6.81 0a3.40 3.40 0 1 0 -6.81 0M1006.31 601.46a3.40 3.40 0 1 0 6.81 0a3.40 3.40 0 1 0 -6.81 0M1006.31 612.69a3.40 3.40 0 1 0 6.81 0a3.40 3.40 0 1 0 -6.81 0M1006.31 623.92a3.40 3.40 0 1 0 6.81 0a3.40 3.40 0 1 0 -6.81 0M1006.31 635.15a3.40 3.40 0 1 0 6.81 0a3.40 3.40 0 1 0 -6.81 0M1006.31 646.38a3.40 3.40 0 1 0 6.81 0a3.40 3.40 0 1 0 -6.81 0M1046.58 73.62a3.40 3.40 0 1 0 6.81 0a3.40 3.40 0 1 0 -6.81 0M1046.58 84.85a3.40 3.40 0 1 0 6.81 0a3.40 3.40 0 1 0 -6.81 0M1046.58 96.08a3.40 3.40 0 1 0 6.81 0a3.40 3.40 0 1 0 -6.81 0M1046.58 107.31a3.40 3.40 0 1 0 6.81 0a3.40 3.40 0 1 0 -6.81 0M1046.58 118.54a3.40 3.40 0 1 0 6.81 0a3.40 3.40 0 1 0 -6.81 0M1046.58 129.77a3.40 3.40 0 1 0 6.81 0a3.40 3.40 0 1 0 -6.81 0M1046.58 141.00a3.40 3.40 0 1 0 6.81 0a3.40 3.40 0 1 0 -6.81 0M1046.58 152.23a3.40 3.40 0 1 0 6.81 0a3.40 3.40 0 1 0 -6.81 0M1046.58 163.46a3.40 3.40 0 1 0 6.81 0a3.40 3.40 0 1 0 -6.81 0M1046.58 174.69a3.40 3.40 0 1 0 6.81 0a3.40 3.40 0 1 0 -6.81 0M1046.58 185.92a3.40 3.40 0 1 0 6.81 0a3.40 3.40 0 1 0 -6.81 0M1046.58 197.15a3.40 3.40 0 1 0 6.81 0a3.40 3.40 0 1 0 -6.81 0M1046.58 208.38a3.40 3.40 0 1 0 6.81 0a3.40 3.40 0 1 0 -6.81 0M1046.58 219.62a3.40 3.40 0 1 0 6.81 0a3.40 3.40 0 1 0 -6.81 0M1046.58 230.85a3.40 3.40 0 1 0 6.81 0a3.40 3.40 0 1 0 -6.81 0M1046.58 242.08a3.40 3.40 0 1 0 6.81 0a3.40 3.40 0 1 0 -6.81 0M1046.58 253.31a3.40 3.40 0 1 0 6.81 0a3.40 3.40 0 1 0 -6.81 0M1046.58 264.54a3.40 3.40 0 1 0 6.81 0a3.40 3.40 0 1 0 -6.81 0M1046.58 275.77a3.40 3.40 0 1 0 6.81 0a3.40 3.40 0 1 0 -6.81 0M1046.58 287.00a3.40 3.40 0 1 0 6.81 0a3.40 3.40 0 1 0 -6.81 0M1046.58 298.23a3.40 3.40 0 1 0 6.81 0a3.40 3.40 0 1 0 -6.81 0M1046.58 309.46a3.40 3.40 0 1 0 6.81 0a3.40 3.40 0 1 0 -6.81 0M1046.58 320.69a3.40 3.40 0 1 0 6.81 0a3.40 3.40 0 1 0 -6.81 0M1046.58 331.92a3.40 3.40 0 1 0 6.81 0a3.40 3.40 0 1 0 -6.81 0M1046.58 343.15a3.40 3.40 0 1 0 6.81 0a3.40 3.40 0 1 0 -6.81 0M1046.58 354.38a3.40 3.40 0 1 0 6.81 0a3.40 3.40 0 1 0 -6.81 0M1046.58 365.62a3.40 3.40 0 1 0 6.81 0a3.40 3.40 0 1 0 -6.81 0M1046.58 376.85a3.40 3.40 0 1 0 6.81 0a3.40 3.40 0 1 0 -6.81 0M1046.58 388.08a3.40 3.40 0 1 0 6.81 0a3.40 3.40 0 1 0 -6.81 0M1046.58 399.31a3.40 3.40 0 1 0 6.81 0a3.40 3.40 0 1 0 -6.81 0M1046.58 410.54a3.40 3.40 0 1 0 6.81 0a3.40 3.40 0 1 0 -6.81 0M1046.58 421.77a3.40 3.40 0 1 0 6.81 0a3.40 3.40 0 1 0 -6.81 0M1046.58 433.00a3.40 3.40 0 1 0 6.81 0a3.40 3.40 0 1 0 -6.81 0M1046.58 444.23a3.40 3.40 0 1 0 6.81 0a3.40 3.40 0 1 0 -6.81 0M1046.58 455.46a3.40 3.40 0 1 0 6.81 0a3.40 3.40 0 1 0 -6.81 0M1046.58 466.69a3.40 3.40 0 1 0 6.81 0a3.40 3.40 0 1 0 -6.81 0M1046.58 477.92a3.40 3.40 0 1 0 6.81 0a3.40 3.40 0 1 0 -6.81 0M1046.58 489.15a3.40 3.40 0 1 0 6.81 0a3.40 3.40 0 1 0 -6.81 0M1046.58 500.38a3.40 3.40 0 1 0 6.81 0a3.40 3.40 0 1 0 -6.81 0M1046.58 511.62a3.40 3.40 0 1 0 6.81 0a3.40 3.40 0 1 0 -6.81 0M1046.58 522.85a3.40 3.40 0 1 0 6.81 0a3.40 3.40 0 1 0 -6.81 0M1046.58 534.08a3.40 3.40 0 1 0 6.81 0a3.40 3.40 0 1 0 -6.81 0M1046.58 545.31a3.40 3.40 0 1 0 6.81 0a3.40 3.40 0 1 0 -6.81 0M1046.58 556.54a3.40 3.40 0 1 0 6.81 0a3.40 3.40 0 1 0 -6.81 0M1046.58 567.77a3.40 3.40 0 1 0 6.81 0a3.40 3.40 0 1 0 -6.81 0M1046.58 579.00a3.40 3.40 0 1 0 6.81 0a3.40 3.40 0 1 0 -6.81 0M1046.58 590.23a3.40 3.40 0 1 0 6.81 0a3.40 3.40 0 1 0 -6.81 0M1046.58 601.46a3.40 3.40 0 1 0 6.81 0a3.40 3.40 0 1 0 -6.81 0M1046.58 612.69a3.40 3.40 0 1 0 6.81 0a3.40 3.40 0 1 0 -6.81 0M1046.58 623.92a3.40 3.40 0 1 0 6.81 0a3.40 3.40 0 1 0 -6.81 0M1046.58 635.15a3.40 3.40 0 1 0 6.81 0a3.40 3.40 0 1 0 -6.81 0M1046.58 646.38a3.40 3.40 0 1 0 6.81 0a3.40 3.40 0 1 0 -6.81 0M1086.85 73.62a3.40 3.40 0 1 0 6.81 0a3.40 3.40 0 1 0 -6.81 0M1086.85 84.85a3.40 3.40 0 1 0 6.81 0a3.40 3.40 0 1 0 -6.81 0M1086.85 96.08a3.40 3.40 0 1 0 6.81 0a3.40 3.40 0 1 0 -6.81 0M1086.85 107.31a3.40 3.40 0 1 0 6.81 0a3.40 3.40 0 1 0 -6.81 0M1086.85 118.54a3.40 3.40 0 1 0 6.81 0a3.40 3.40 0 1 0 -6.81 0M1086.85 129.77a3.40 3.40 0 1 0 6.81 0a3.40 3.40 0 1 0 -6.81 0M1086.85 141.00a3.40 3.40 0 1 0 6.81 0a3.40 3.40 0 1 0 -6.81 0M1086.85 152.23a3.40 3.40 0 1 0 6.81 0a3.40 3.40 0 1 0 -6.81 0M1086.85 163.46a3.40 3.40 0 1 0 6.81 0a3.40 3.40 0 1 0 -6.81 0M1086.85 174.69a3.40 3.40 0 1 0 6.81 0a3.40 3.40 0 1 0 -6.81 0M1086.85 185.92a3.40 3.40 0 1 0 6.81 0a3.40 3.40 0 1 0 -6.81 0M1086.85 197.15a3.40 3.40 0 1 0 6.81 0a3.40 3.40 0 1 0 -6.81 0M1086.85 208.38a3.40 3.40 0 1 0 6.81 0a3.40 3.40 0 1 0 -6.81 0M1086.85 219.62a3.40 3.40 0 1 0 6.81 0a3.40 3.40 0 1 0 -6.81 0M1086.85 230.85a3.40 3.40 0 1 0 6.81 0a3.40 3.40 0 1 0 -6.81 0M1086.85 242.08a3.40 3.40 0 1 0 6.81 0a3.40 3.40 0 1 0 -6.81 0M1086.85 253.31a3.40 3.40 0 1 0 6.81 0a3.40 3.40 0 1 0 -6.81 0M1086.85 264.54a3.40 3.40 0 1 0 6.81 0a3.40 3.40 0 1 0 -6.81 0M1086.85 275.77a3.40 3.40 0 1 0 6.81 0a3.40 3.40 0 1 0 -6.81 0M1086.85 287.00a3.40 3.40 0 1 0 6.81 0a3.40 3.40 0 1 0 -6.81 0M1086.85 298.23a3.40 3.40 0 1 0 6.81 0a3.40 3.40 0 1 0 -6.81 0M1086.85 309.46a3.40 3.40 0 1 0 6.81 0a3.40 3.40 0 1 0 -6.81 0M1086.85 320.69a3.40 3.40 0 1 0 6.81 0a3.40 3.40 0 1 0 -6.81 0M1086.85 331.92a3.40 3.40 0 1 0 6.81 0a3.40 3.40 0 1 0 -6.81 0M1086.85 343.15a3.40 3.40 0 1 0 6.81 0a3.40 3.40 0 1 0 -6.81 0M1086.85 354.38a3.40 3.40 0 1 0 6.81 0a3.40 3.40 0 1 0 -6.81 0M1086.85 365.62a3.40 3.40 0 1 0 6.81 0a3.40 3.40 0 1 0 -6.81 0M1086.85 376.85a3.40 3.40 0 1 0 6.81 0a3.40 3.40 0 1 0 -6.81 0M1086.85 388.08a3.40 3.40 0 1 0 6.81 0a3.40 3.40 0 1 0 -6.81 0M1086.85 399.31a3.40 3.40 0 1 0 6.81 0a3.40 3.40 0 1 0 -6.81 0M1086.85 410.54a3.40 3.40 0 1 0 6.81 0a3.40 3.40 0 1 0 -6.81 0M1086.85 421.77a3.40 3.40 0 1 0 6.81 0a3.40 3.40 0 1 0 -6.81 0M1086.85 433.00a3.40 3.40 0 1 0 6.81 0a3.40 3.40 0 1 0 -6.81 0M1086.85 444.23a3.40 3.40 0 1 0 6.81 0a3.40 3.40 0 1 0 -6.81 0M1086.85 455.46a3.40 3.40 0 1 0 6.81 0a3.40 3.40 0 1 0 -6.81 0M1086.85 466.69a3.40 3.40 0 1 0 6.81 0a3.40 3.40 0 1 0 -6.81 0M1086.85 477.92a3.40 3.40 0 1 0 6.81 0a3.40 3.40 0 1 0 -6.81 0M1086.85 489.15a3.40 3.40 0 1 0 6.81 0a3.40 3.40 0 1 0 -6.81 0M1086.85 500.38a3.40 3.40 0 1 0 6.81 0a3.40 3.40 0 1 0 -6.81 0M1086.85 511.62a3.40 3.40 0 1 0 6.81 0a3.40 3.40 0 1 0 -6.81 0M1086.85 522.85a3.40 3.40 0 1 0 6.81 0a3.40 3.40 0 1 0 -6.81 0M1086.85 534.08a3.40 3.40 0 1 0 6.81 0a3.40 3.40 0 1 0 -6.81 0M1086.85 545.31a3.40 3.40 0 1 0 6.81 0a3.40 3.40 0 1 0 -6.81 0M1086.85 556.54a3.40 3.40 0 1 0 6.81 0a3.40 3.40 0 1 0 -6.81 0M1086.85 567.77a3.40 3.40 0 1 0 6.81 0a3.40 3.40 0 1 0 -6.81 0M1086.85 579.00a3.40 3.40 0 1 0 6.81 0a3.40 3.40 0 1 0 -6.81 0M1086.85 590.23a3.40 3.40 0 1 0 6.81 0a3.40 3.40 0 1 0 -6.81 0M1086.85 601.46a3.40 3.40 0 1 0 6.81 0a3.40 3.40 0 1 0 -6.81 0M1086.85 612.69a3.40 3.40 0 1 0 6.81 0a3.40 3.40 0 1 0 -6.81 0M1086.85 623.92a3.40 3.40 0 1 0 6.81 0a3.40 3.40 0 1 0 -6.81 0M1086.85 635.15a3.40 3.40 0 1 0 6.81 0a3.40 3.40 0 1 0 -6.81 0M1086.85 646.38a3.40 3.40 0 1 0 6.81 0a3.40 3.40 0 1 0 -6.81 0M1127.12 73.62a3.40 3.40 0 1 0 6.81 0a3.40 3.40 0 1 0 -6.81 0M1127.12 84.85a3.40 3.40 0 1 0 6.81 0a3.40 3.40 0 1 0 -6.81 0M1127.12 96.08a3.40 3.40 0 1 0 6.81 0a3.40 3.40 0 1 0 -6.81 0M1127.12 107.31a3.40 3.40 0 1 0 6.81 0a3.40 3.40 0 1 0 -6.81 0M1127.12 118.54a3.40 3.40 0 1 0 6.81 0a3.40 3.40 0 1 0 -6.81 0M1127.12 129.77a3.40 3.40 0 1 0 6.81 0a3.40 3.40 0 1 0 -6.81 0M1127.12 141.00a3.40 3.40 0 1 0 6.81 0a3.40 3.40 0 1 0 -6.81 0M1127.12 152.23a3.40 3.40 0 1 0 6.81 0a3.40 3.40 0 1 0 -6.81 0M1127.12 163.46a3.40 3.40 0 1 0 6.81 0a3.40 3.40 0 1 0 -6.81 0M1127.12 174.69a3.40 3.40 0 1 0 6.81 0a3.40 3.40 0 1 0 -6.81 0M1127.12 185.92a3.40 3.40 0 1 0 6.81 0a3.40 3.40 0 1 0 -6.81 0M1127.12 197.15a3.40 3.40 0 1 0 6.81 0a3.40 3.40 0 1 0 -6.81 0M1127.12 208.38a3.40 3.40 0 1 0 6.81 0a3.40 3.40 0 1 0 -6.81 0M1127.12 219.62a3.40 3.40 0 1 0 6.81 0a3.40 3.40 0 1 0 -6.81 0M1127.12 230.85a3.40 3.40 0 1 0 6.81 0a3.40 3.40 0 1 0 -6.81 0M1127.12 242.08a3.40 3.40 0 1 0 6.81 0a3.40 3.40 0 1 0 -6.81 0M1127.12 253.31a3.40 3.40 0 1 0 6.81 0a3.40 3.40 0 1 0 -6.81 0M1127.12 264.54a3.40 3.40 0 1 0 6.81 0a3.40 3.40 0 1 0 -6.81 0M1127.12 275.77a3.40 3.40 0 1 0 6.81 0a3.40 3.40 0 1 0 -6.81 0M1127.12 287.00a3.40 3.40 0 1 0 6.81 0a3.40 3.40 0 1 0 -6.81 0M1127.12 298.23a3.40 3.40 0 1 0 6.81 0a3.40 3.40 0 1 0 -6.81 0M1127.12 309.46a3.40 3.40 0 1 0 6.81 0a3.40 3.40 0 1 0 -6.81 0M1127.12 320.69a3.40 3.40 0 1 0 6.81 0a3.40 3.40 0 1 0 -6.81 0M1127.12 331.92a3.40 3.40 0 1 0 6.81 0a3.40 3.40 0 1 0 -6.81 0M1127.12 343.15a3.40 3.40 0 1 0 6.81 0a3.40 3.40 0 1 0 -6.81 0M1127.12 354.38a3.40 3.40 0 1 0 6.81 0a3.40 3.40 0 1 0 -6.81 0M1127.12 365.62a3.40 3.40 0 1 0 6.81 0a3.40 3.40 0 1 0 -6.81 0M1127.12 376.85a3.40 3.40 0 1 0 6.81 0a3.40 3.40 0 1 0 -6.81 0M1127.12 388.08a3.40 3.40 0 1 0 6.81 0a3.40 3.40 0 1 0 -6.81 0M1127.12 399.31a3.40 3.40 0 1 0 6.81 0a3.40 3.40 0 1 0 -6.81 0M1127.12 410.54a3.40 3.40 0 1 0 6.81 0a3.40 3.40 0 1 0 -6.81 0M1127.12 421.77a3.40 3.40 0 1 0 6.81 0a3.40 3.40 0 1 0 -6.81 0M1127.12 433.00a3.40 3.40 0 1 0 6.81 0a3.40 3.40 0 1 0 -6.81 0M1127.12 444.23a3.40 3.40 0 1 0 6.81 0a3.40 3.40 0 1 0 -6.81 0M1127.12 455.46a3.40 3.40 0 1 0 6.81 0a3.40 3.40 0 1 0 -6.81 0M1127.12 466.69a3.40 3.40 0 1 0 6.81 0a3.40 3.40 0 1 0 -6.81 0M1127.12 477.92a3.40 3.40 0 1 0 6.81 0a3.40 3.40 0 1 0 -6.81 0M1127.12 489.15a3.40 3.40 0 1 0 6.81 0a3.40 3.40 0 1 0 -6.81 0M1127.12 500.38a3.40 3.40 0 1 0 6.81 0a3.40 3.40 0 1 0 -6.81 0M1127.12 511.62a3.40 3.40 0 1 0 6.81 0a3.40 3.40 0 1 0 -6.81 0M1127.12 522.85a3.40 3.40 0 1 0 6.81 0a3.40 3.40 0 1 0 -6.81 0M1127.12 534.08a3.40 3.40 0 1 0 6.81 0a3.40 3.40 0 1 0 -6.81 0M1127.12 545.31a3.40 3.40 0 1 0 6.81 0a3.40 3.40 0 1 0 -6.81 0M1127.12 556.54a3.40 3.40 0 1 0 6.81 0a3.40 3.40 0 1 0 -6.81 0M1127.12 567.77a3.40 3.40 0 1 0 6.81 0a3.40 3.40 0 1 0 -6.81 0M1127.12 579.00a3.40 3.40 0 1 0 6.81 0a3.40 3.40 0 1 0 -6.81 0M1127.12 590.23a3.40 3.40 0 1 0 6.81 0a3.40 3.40 0 1 0 -6.81 0M1127.12 601.46a3.40 3.40 0 1 0 6.81 0a3.40 3.40 0 1 0 -6.81 0M1127.12 612.69a3.40 3.40 0 1 0 6.81 0a3.40 3.40 0 1 0 -6.81 0M1127.12 623.92a3.40 3.40 0 1 0 6.81 0a3.40 3.40 0 1 0 -6.81 0M1127.12 635.15a3.40 3.40 0 1 0 6.81 0a3.40 3.40 0 1 0 -6.81 0M1127.12 646.38a3.40 3.40 0 1 0 6.81 0a3.40 3.40 0 1 0 -6.81 0M1167.39 73.62a3.40 3.40 0 1 0 6.81 0a3.40 3.40 0 1 0 -6.81 0M1167.39 84.85a3.40 3.40 0 1 0 6.81 0a3.40 3.40 0 1 0 -6.81 0M1167.39 96.08a3.40 3.40 0 1 0 6.81 0a3.40 3.40 0 1 0 -6.81 0M1167.39 107.31a3.40 3.40 0 1 0 6.81 0a3.40 3.40 0 1 0 -6.81 0M1167.39 118.54a3.40 3.40 0 1 0 6.81 0a3.40 3.40 0 1 0 -6.81 0M1167.39 129.77a3.40 3.40 0 1 0 6.81 0a3.40 3.40 0 1 0 -6.81 0M1167.39 141.00a3.40 3.40 0 1 0 6.81 0a3.40 3.40 0 1 0 -6.81 0M1167.39 152.23a3.40 3.40 0 1 0 6.81 0a3.40 3.40 0 1 0 -6.81 0M1167.39 163.46a3.40 3.40 0 1 0 6.81 0a3.40 3.40 0 1 0 -6.81 0M1167.39 174.69a3.40 3.40 0 1 0 6.81 0a3.40 3.40 0 1 0 -6.81 0M1167.39 185.92a3.40 3.40 0 1 0 6.81 0a3.40 3.40 0 1 0 -6.81 0M1167.39 197.15a3.40 3.40 0 1 0 6.81 0a3.40 3.40 0 1 0 -6.81 0M1167.39 208.38a3.40 3.40 0 1 0 6.81 0a3.40 3.40 0 1 0 -6.81 0M1167.39 219.62a3.40 3.40 0 1 0 6.81 0a3.40 3.40 0 1 0 -6.81 0M1167.39 230.85a3.40 3.40 0 1 0 6.81 0a3.40 3.40 0 1 0 -6.81 0M1167.39 242.08a3.40 3.40 0 1 0 6.81 0a3.40 3.40 0 1 0 -6.81 0M1167.39 253.31a3.40 3.40 0 1 0 6.81 0a3.40 3.40 0 1 0 -6.81 0M1167.39 264.54a3.40 3.40 0 1 0 6.81 0a3.40 3.40 0 1 0 -6.81 0M1167.39 275.77a3.40 3.40 0 1 0 6.81 0a3.40 3.40 0 1 0 -6.81 0M1167.39 287.00a3.40 3.40 0 1 0 6.81 0a3.40 3.40 0 1 0 -6.81 0M1167.39 298.23a3.40 3.40 0 1 0 6.81 0a3.40 3.40 0 1 0 -6.81 0M1167.39 309.46a3.40 3.40 0 1 0 6.81 0a3.40 3.40 0 1 0 -6.81 0M1167.39 320.69a3.40 3.40 0 1 0 6.81 0a3.40 3.40 0 1 0 -6.81 0M1167.39 331.92a3.40 3.40 0 1 0 6.81 0a3.40 3.40 0 1 0 -6.81 0M1167.39 343.15a3.40 3.40 0 1 0 6.81 0a3.40 3.40 0 1 0 -6.81 0M1167.39 354.38a3.40 3.40 0 1 0 6.81 0a3.40 3.40 0 1 0 -6.81 0M1167.39 365.62a3.40 3.40 0 1 0 6.81 0a3.40 3.40 0 1 0 -6.81 0M1167.39 376.85a3.40 3.40 0 1 0 6.81 0a3.40 3.40 0 1 0 -6.81 0M1167.39 388.08a3.40 3.40 0 1 0 6.81 0a3.40 3.40 0 1 0 -6.81 0M1167.39 399.31a3.40 3.40 0 1 0 6.81 0a3.40 3.40 0 1 0 -6.81 0M1167.39 410.54a3.40 3.40 0 1 0 6.81 0a3.40 3.40 0 1 0 -6.81 0M1167.39 421.77a3.40 3.40 0 1 0 6.81 0a3.40 3.40 0 1 0 -6.81 0M1167.39 433.00a3.40 3.40 0 1 0 6.81 0a3.40 3.40 0 1 0 -6.81 0M1167.39 444.23a3.40 3.40 0 1 0 6.81 0a3.40 3.40 0 1 0 -6.81 0M1167.39 455.46a3.40 3.40 0 1 0 6.81 0a3.40 3.40 0 1 0 -6.81 0M1167.39 466.69a3.40 3.40 0 1 0 6.81 0a3.40 3.40 0 1 0 -6.81 0M1167.39 477.92a3.40 3.40 0 1 0 6.81 0a3.40 3.40 0 1 0 -6.81 0M1167.39 489.15a3.40 3.40 0 1 0 6.81 0a3.40 3.40 0 1 0 -6.81 0M1167.39 500.38a3.40 3.40 0 1 0 6.81 0a3.40 3.40 0 1 0 -6.81 0M1167.39 511.62a3.40 3.40 0 1 0 6.81 0a3.40 3.40 0 1 0 -6.81 0M1167.39 522.85a3.40 3.40 0 1 0 6.81 0a3.40 3.40 0 1 0 -6.81 0M1167.39 534.08a3.40 3.40 0 1 0 6.81 0a3.40 3.40 0 1 0 -6.81 0M1167.39 545.31a3.40 3.40 0 1 0 6.81 0a3.40 3.40 0 1 0 -6.81 0M1167.39 556.54a3.40 3.40 0 1 0 6.81 0a3.40 3.40 0 1 0 -6.81 0M1167.39 567.77a3.40 3.40 0 1 0 6.81 0a3.40 3.40 0 1 0 -6.81 0M1167.39 579.00a3.40 3.40 0 1 0 6.81 0a3.40 3.40 0 1 0 -6.81 0M1167.39 590.23a3.40 3.40 0 1 0 6.81 0a3.40 3.40 0 1 0 -6.81 0M1167.39 601.46a3.40 3.40 0 1 0 6.81 0a3.40 3.40 0 1 0 -6.81 0M1167.39 612.69a3.40 3.40 0 1 0 6.81 0a3.40 3.40 0 1 0 -6.81 0M1167.39 623.92a3.40 3.40 0 1 0 6.81 0a3.40 3.40 0 1 0 -6.81 0M1167.39 635.15a3.40 3.40 0 1 0 6.81 0a3.40 3.40 0 1 0 -6.81 0M1167.39 646.38a3.40 3.40 0 1 0 6.81 0a3.40 3.40 0 1 0 -6.81 0M1207.66 73.62a3.40 3.40 0 1 0 6.81 0a3.40 3.40 0 1 0 -6.81 0M1207.66 84.85a3.40 3.40 0 1 0 6.81 0a3.40 3.40 0 1 0 -6.81 0M1207.66 96.08a3.40 3.40 0 1 0 6.81 0a3.40 3.40 0 1 0 -6.81 0M1207.66 107.31a3.40 3.40 0 1 0 6.81 0a3.40 3.40 0 1 0 -6.81 0M1207.66 118.54a3.40 3.40 0 1 0 6.81 0a3.40 3.40 0 1 0 -6.81 0M1207.66 129.77a3.40 3.40 0 1 0 6.81 0a3.40 3.40 0 1 0 -6.81 0M1207.66 141.00a3.40 3.40 0 1 0 6.81 0a3.40 3.40 0 1 0 -6.81 0M1207.66 152.23a3.40 3.40 0 1 0 6.81 0a3.40 3.40 0 1 0 -6.81 0M1207.66 163.46a3.40 3.40 0 1 0 6.81 0a3.40 3.40 0 1 0 -6.81 0M1207.66 174.69a3.40 3.40 0 1 0 6.81 0a3.40 3.40 0 1 0 -6.81 0M1207.66 185.92a3.40 3.40 0 1 0 6.81 0a3.40 3.40 0 1 0 -6.81 0M1207.66 197.15a3.40 3.40 0 1 0 6.81 0a3.40 3.40 0 1 0 -6.81 0M1207.66 208.38a3.40 3.40 0 1 0 6.81 0a3.40 3.40 0 1 0 -6.81 0M1207.66 219.62a3.40 3.40 0 1 0 6.81 0a3.40 3.40 0 1 0 -6.81 0M1207.66 230.85a3.40 3.40 0 1 0 6.81 0a3.40 3.40 0 1 0 -6.81 0M1207.66 242.08a3.40 3.40 0 1 0 6.81 0a3.40 3.40 0 1 0 -6.81 0M1207.66 253.31a3.40 3.40 0 1 0 6.81 0a3.40 3.40 0 1 0 -6.81 0M1207.66 264.54a3.40 3.40 0 1 0 6.81 0a3.40 3.40 0 1 0 -6.81 0M1207.66 275.77a3.40 3.40 0 1 0 6.81 0a3.40 3.40 0 1 0 -6.81 0M1207.66 287.00a3.40 3.40 0 1 0 6.81 0a3.40 3.40 0 1 0 -6.81 0M1207.66 298.23a3.40 3.40 0 1 0 6.81 0a3.40 3.40 0 1 0 -6.81 0M1207.66 309.46a3.40 3.40 0 1 0 6.81 0a3.40 3.40 0 1 0 -6.81 0M1207.66 320.69a3.40 3.40 0 1 0 6.81 0a3.40 3.40 0 1 0 -6.81 0M1207.66 331.92a3.40 3.40 0 1 0 6.81 0a3.40 3.40 0 1 0 -6.81 0M1207.66 343.15a3.40 3.40 0 1 0 6.81 0a3.40 3.40 0 1 0 -6.81 0M1207.66 354.38a3.40 3.40 0 1 0 6.81 0a3.40 3.40 0 1 0 -6.81 0M1207.66 365.62a3.40 3.40 0 1 0 6.81 0a3.40 3.40 0 1 0 -6.81 0M1207.66 376.85a3.40 3.40 0 1 0 6.81 0a3.40 3.40 0 1 0 -6.81 0M1207.66 388.08a3.40 3.40 0 1 0 6.81 0a3.40 3.40 0 1 0 -6.81 0M1207.66 399.31a3.40 3.40 0 1 0 6.81 0a3.40 3.40 0 1 0 -6.81 0M1207.66 410.54a3.40 3.40 0 1 0 6.81 0a3.40 3.40 0 1 0 -6.81 0M1207.66 421.77a3.40 3.40 0 1 0 6.81 0a3.40 3.40 0 1 0 -6.81 0M1207.66 433.00a3.40 3.40 0 1 0 6.81 0a3.40 3.40 0 1 0 -6.81 0M1207.66 444.23a3.40 3.40 0 1 0 6.81 0a3.40 3.40 0 1 0 -6.81 0M1207.66 455.46a3.40 3.40 0 1 0 6.81 0a3.40 3.40 0 1 0 -6.81 0M1207.66 466.69a3.40 3.40 0 1 0 6.81 0a3.40 3.40 0 1 0 -6.81 0M1207.66 477.92a3.40 3.40 0 1 0 6.81 0a3.40 3.40 0 1 0 -6.81 0M1207.66 489.15a3.40 3.40 0 1 0 6.81 0a3.40 3.40 0 1 0 -6.81 0M1207.66 500.38a3.40 3.40 0 1 0 6.81 0a3.40 3.40 0 1 0 -6.81 0M1207.66 511.62a3.40 3.40 0 1 0 6.81 0a3.40 3.40 0 1 0 -6.81 0M1207.66 522.85a3.40 3.40 0 1 0 6.81 0a3.40 3.40 0 1 0 -6.81 0M1207.66 534.08a3.40 3.40 0 1 0 6.81 0a3.40 3.40 0 1 0 -6.81 0M1207.66 545.31a3.40 3.40 0 1 0 6.81 0a3.40 3.40 0 1 0 -6.81 0M1207.66 556.54a3.40 3.40 0 1 0 6.81 0a3.40 3.40 0 1 0 -6.81 0M1207.66 567.77a3.40 3.40 0 1 0 6.81 0a3.40 3.40 0 1 0 -6.81 0M1207.66 579.00a3.40 3.40 0 1 0 6.81 0a3.40 3.40 0 1 0 -6.81 0M1207.66 590.23a3.40 3.40 0 1 0 6.81 0a3.40 3.40 0 1 0 -6.81 0M1207.66 601.46a3.40 3.40 0 1 0 6.81 0a3.40 3.40 0 1 0 -6.81 0M1207.66 612.69a3.40 3.40 0 1 0 6.81 0a3.40 3.40 0 1 0 -6.81 0M1207.66 623.92a3.40 3.40 0 1 0 6.81 0a3.40 3.40 0 1 0 -6.81 0M1207.66 635.15a3.40 3.40 0 1 0 6.81 0a3.40 3.40 0 1 0 -6.81 0M1207.66 646.38a3.40 3.40 0 1 0 6.81 0a3.40 3.40 0 1 0 -6.81 0M1247.92 73.62a3.40 3.40 0 1 0 6.81 0a3.40 3.40 0 1 0 -6.81 0M1247.92 84.85a3.40 3.40 0 1 0 6.81 0a3.40 3.40 0 1 0 -6.81 0M1247.92 96.08a3.40 3.40 0 1 0 6.81 0a3.40 3.40 0 1 0 -6.81 0M1247.92 107.31a3.40 3.40 0 1 0 6.81 0a3.40 3.40 0 1 0 -6.81 0M1247.92 118.54a3.40 3.40 0 1 0 6.81 0a3.40 3.40 0 1 0 -6.81 0M1247.92 129.77a3.40 3.40 0 1 0 6.81 0a3.40 3.40 0 1 0 -6.81 0M1247.92 141.00a3.40 3.40 0 1 0 6.81 0a3.40 3.40 0 1 0 -6.81 0M1247.92 152.23a3.40 3.40 0 1 0 6.81 0a3.40 3.40 0 1 0 -6.81 0M1247.92 163.46a3.40 3.40 0 1 0 6.81 0a3.40 3.40 0 1 0 -6.81 0M1247.92 174.69a3.40 3.40 0 1 0 6.81 0a3.40 3.40 0 1 0 -6.81 0M1247.92 185.92a3.40 3.40 0 1 0 6.81 0a3.40 3.40 0 1 0 -6.81 0M1247.92 197.15a3.40 3.40 0 1 0 6.81 0a3.40 3.40 0 1 0 -6.81 0M1247.92 208.38a3.40 3.40 0 1 0 6.81 0a3.40 3.40 0 1 0 -6.81 0M1247.92 219.62a3.40 3.40 0 1 0 6.81 0a3.40 3.40 0 1 0 -6.81 0M1247.92 230.85a3.40 3.40 0 1 0 6.81 0a3.40 3.40 0 1 0 -6.81 0M1247.92 242.08a3.40 3.40 0 1 0 6.81 0a3.40 3.40 0 1 0 -6.81 0M1247.92 253.31a3.40 3.40 0 1 0 6.81 0a3.40 3.40 0 1 0 -6.81 0M1247.92 264.54a3.40 3.40 0 1 0 6.81 0a3.40 3.40 0 1 0 -6.81 0M1247.92 275.77a3.40 3.40 0 1 0 6.81 0a3.40 3.40 0 1 0 -6.81 0M1247.92 287.00a3.40 3.40 0 1 0 6.81 0a3.40 3.40 0 1 0 -6.81 0M1247.92 298.23a3.40 3.40 0 1 0 6.81 0a3.40 3.40 0 1 0 -6.81 0M1247.92 309.46a3.40 3.40 0 1 0 6.81 0a3.40 3.40 0 1 0 -6.81 0M1247.92 320.69a3.40 3.40 0 1 0 6.81 0a3.40 3.40 0 1 0 -6.81 0M1247.92 331.92a3.40 3.40 0 1 0 6.81 0a3.40 3.40 0 1 0 -6.81 0M1247.92 343.15a3.40 3.40 0 1 0 6.81 0a3.40 3.40 0 1 0 -6.81 0M1247.92 354.38a3.40 3.40 0 1 0 6.81 0a3.40 3.40 0 1 0 -6.81 0M1247.92 365.62a3.40 3.40 0 1 0 6.81 0a3.40 3.40 0 1 0 -6.81 0M1247.92 376.85a3.40 3.40 0 1 0 6.81 0a3.40 3.40 0 1 0 -6.81 0M1247.92 388.08a3.40 3.40 0 1 0 6.81 0a3.40 3.40 0 1 0 -6.81 0M1247.92 399.31a3.40 3.40 0 1 0 6.81 0a3.40 3.40 0 1 0 -6.81 0M1247.92 410.54a3.40 3.40 0 1 0 6.81 0a3.40 3.40 0 1 0 -6.81 0M1247.92 421.77a3.40 3.40 0 1 0 6.81 0a3.40 3.40 0 1 0 -6.81 0M1247.92 433.00a3.40 3.40 0 1 0 6.81 0a3.40 3.40 0 1 0 -6.81 0M1247.92 444.23a3.40 3.40 0 1 0 6.81 0a3.40 3.40 0 1 0 -6.81 0M1247.92 455.46a3.40 3.40 0 1 0 6.81 0a3.40 3.40 0 1 0 -6.81 0M1247.92 466.69a3.40 3.40 0 1 0 6.81 0a3.40 3.40 0 1 0 -6.81 0M1247.92 477.92a3.40 3.40 0 1 0 6.81 0a3.40 3.40 0 1 0 -6.81 0M1247.92 489.15a3.40 3.40 0 1 0 6.81 0a3.40 3.40 0 1 0 -6.81 0M1247.92 500.38a3.40 3.40 0 1 0 6.81 0a3.40 3.40 0 1 0 -6.81 0M1247.92 511.62a3.40 3.40 0 1 0 6.81 0a3.40 3.40 0 1 0 -6.81 0M1247.92 522.85a3.40 3.40 0 1 0 6.81 0a3.40 3.40 0 1 0 -6.81 0M1247.92 534.08a3.40 3.40 0 1 0 6.81 0a3.40 3.40 0 1 0 -6.81 0M1247.92 545.31a3.40 3.40 0 1 0 6.81 0a3.40 3.40 0 1 0 -6.81 0M1247.92 556.54a3.40 3.40 0 1 0 6.81 0a3.40 3.40 0 1 0 -6.81 0M1247.92 567.77a3.40 3.40 0 1 0 6.81 0a3.40 3.40 0 1 0 -6.81 0M1247.92 579.00a3.40 3.40 0 1 0 6.81 0a3.40 3.40 0 1 0 -6.81 0M1247.92 590.23a3.40 3.40 0 1 0 6.81 0a3.40 3.40 0 1 0 -6.81 0M1247.92 601.46a3.40 3.40 0 1 0 6.81 0a3.40 3.40 0 1 0 -6.81 0M1247.92 612.69a3.40 3.40 0 1 0 6.81 0a3.40 3.40 0 1 0 -6.81 0M1247.92 623.92a3.40 3.40 0 1 0 6.81 0a3.40 3.40 0 1 0 -6.81 0M1247.92 635.15a3.40 3.40 0 1 0 6.81 0a3.40 3.40 0 1 0 -6.81 0M1247.92 646.38a3.40 3.40 0 1 0 6.81 0a3.40 3.40 0 1 0 -6.81 0M1288.19 73.62a3.40 3.40 0 1 0 6.81 0a3.40 3.40 0 1 0 -6.81 0M1288.19 84.85a3.40 3.40 0 1 0 6.81 0a3.40 3.40 0 1 0 -6.81 0M1288.19 96.08a3.40 3.40 0 1 0 6.81 0a3.40 3.40 0 1 0 -6.81 0M1288.19 107.31a3.40 3.40 0 1 0 6.81 0a3.40 3.40 0 1 0 -6.81 0M1288.19 118.54a3.40 3.40 0 1 0 6.81 0a3.40 3.40 0 1 0 -6.81 0M1288.19 129.77a3.40 3.40 0 1 0 6.81 0a3.40 3.40 0 1 0 -6.81 0M1288.19 141.00a3.40 3.40 0 1 0 6.81 0a3.40 3.40 0 1 0 -6.81 0M1288.19 152.23a3.40 3.40 0 1 0 6.81 0a3.40 3.40 0 1 0 -6.81 0M1288.19 163.46a3.40 3.40 0 1 0 6.81 0a3.40 3.40 0 1 0 -6.81 0M1288.19 174.69a3.40 3.40 0 1 0 6.81 0a3.40 3.40 0 1 0 -6.81 0M1288.19 185.92a3.40 3.40 0 1 0 6.81 0a3.40 3.40 0 1 0 -6.81 0M1288.19 197.15a3.40 3.40 0 1 0 6.81 0a3.40 3.40 0 1 0 -6.81 0M1288.19 208.38a3.40 3.40 0 1 0 6.81 0a3.40 3.40 0 1 0 -6.81 0M1288.19 219.62a3.40 3.40 0 1 0 6.81 0a3.40 3.40 0 1 0 -6.81 0M1288.19 230.85a3.40 3.40 0 1 0 6.81 0a3.40 3.40 0 1 0 -6.81 0M1288.19 242.08a3.40 3.40 0 1 0 6.81 0a3.40 3.40 0 1 0 -6.81 0M1288.19 253.31a3.40 3.40 0 1 0 6.81 0a3.40 3.40 0 1 0 -6.81 0M1288.19 264.54a3.40 3.40 0 1 0 6.81 0a3.40 3.40 0 1 0 -6.81 0M1288.19 275.77a3.40 3.40 0 1 0 6.81 0a3.40 3.40 0 1 0 -6.81 0M1288.19 287.00a3.40 3.40 0 1 0 6.81 0a3.40 3.40 0 1 0 -6.81 0M1288.19 298.23a3.40 3.40 0 1 0 6.81 0a3.40 3.40 0 1 0 -6.81 0M1288.19 309.46a3.40 3.40 0 1 0 6.81 0a3.40 3.40 0 1 0 -6.81 0M1288.19 320.69a3.40 3.40 0 1 0 6.81 0a3.40 3.40 0 1 0 -6.81 0M1288.19 331.92a3.40 3.40 0 1 0 6.81 0a3.40 3.40 0 1 0 -6.81 0M1288.19 343.15a3.40 3.40 0 1 0 6.81 0a3.40 3.40 0 1 0 -6.81 0M1288.19 354.38a3.40 3.40 0 1 0 6.81 0a3.40 3.40 0 1 0 -6.81 0M1288.19 365.62a3.40 3.40 0 1 0 6.81 0a3.40 3.40 0 1 0 -6.81 0M1288.19 376.85a3.40 3.40 0 1 0 6.81 0a3.40 3.40 0 1 0 -6.81 0M1288.19 388.08a3.40 3.40 0 1 0 6.81 0a3.40 3.40 0 1 0 -6.81 0M1288.19 399.31a3.40 3.40 0 1 0 6.81 0a3.40 3.40 0 1 0 -6.81 0M1288.19 410.54a3.40 3.40 0 1 0 6.81 0a3.40 3.40 0 1 0 -6.81 0M1288.19 421.77a3.40 3.40 0 1 0 6.81 0a3.40 3.40 0 1 0 -6.81 0M1288.19 433.00a3.40 3.40 0 1 0 6.81 0a3.40 3.40 0 1 0 -6.81 0M1288.19 444.23a3.40 3.40 0 1 0 6.81 0a3.40 3.40 0 1 0 -6.81 0M1288.19 455.46a3.40 3.40 0 1 0 6.81 0a3.40 3.40 0 1 0 -6.81 0M1288.19 466.69a3.40 3.40 0 1 0 6.81 0a3.40 3.40 0 1 0 -6.81 0M1288.19 477.92a3.40 3.40 0 1 0 6.81 0a3.40 3.40 0 1 0 -6.81 0M1288.19 489.15a3.40 3.40 0 1 0 6.81 0a3.40 3.40 0 1 0 -6.81 0M1288.19 500.38a3.40 3.40 0 1 0 6.81 0a3.40 3.40 0 1 0 -6.81 0M1288.19 511.62a3.40 3.40 0 1 0 6.81 0a3.40 3.40 0 1 0 -6.81 0M1288.19 522.85a3.40 3.40 0 1 0 6.81 0a3.40 3.40 0 1 0 -6.81 0M1288.19 534.08a3.40 3.40 0 1 0 6.81 0a3.40 3.40 0 1 0 -6.81 0M1288.19 545.31a3.40 3.40 0 1 0 6.81 0a3.40 3.40 0 1 0 -6.81 0M1288.19 556.54a3.40 3.40 0 1 0 6.81 0a3.40 3.40 0 1 0 -6.81 0M1288.19 567.77a3.40 3.40 0 1 0 6.81 0a3.40 3.40 0 1 0 -6.81 0M1288.19 579.00a3.40 3.40 0 1 0 6.81 0a3.40 3.40 0 1 0 -6.81 0M1288.19 590.23a3.40 3.40 0 1 0 6.81 0a3.40 3.40 0 1 0 -6.81 0M1288.19 601.46a3.40 3.40 0 1 0 6.81 0a3.40 3.40 0 1 0 -6.81 0M1288.19 612.69a3.40 3.40 0 1 0 6.81 0a3.40 3.40 0 1 0 -6.81 0M1288.19 623.92a3.40 3.40 0 1 0 6.81 0a3.40 3.40 0 1 0 -6.81 0M1288.19 635.15a3.40 3.40 0 1 0 6.81 0a3.40 3.40 0 1 0 -6.81 0M1288.19 646.38a3.40 3.40 0 1 0 6.81 0a3.40 3.40 0 1 0 -6.81 0M1328.46 73.62a3.40 3.40 0 1 0 6.81 0a3.40 3.40 0 1 0 -6.81 0M1328.46 84.85a3.40 3.40 0 1 0 6.81 0a3.40 3.40 0 1 0 -6.81 0M1328.46 96.08a3.40 3.40 0 1 0 6.81 0a3.40 3.40 0 1 0 -6.81 0M1328.46 107.31a3.40 3.40 0 1 0 6.81 0a3.40 3.40 0 1 0 -6.81 0M1328.46 118.54a3.40 3.40 0 1 0 6.81 0a3.40 3.40 0 1 0 -6.81 0M1328.46 129.77a3.40 3.40 0 1 0 6.81 0a3.40 3.40 0 1 0 -6.81 0M1328.46 141.00a3.40 3.40 0 1 0 6.81 0a3.40 3.40 0 1 0 -6.81 0M1328.46 152.23a3.40 3.40 0 1 0 6.81 0a3.40 3.40 0 1 0 -6.81 0M1328.46 163.46a3.40 3.40 0 1 0 6.81 0a3.40 3.40 0 1 0 -6.81 0M1328.46 174.69a3.40 3.40 0 1 0 6.81 0a3.40 3.40 0 1 0 -6.81 0M1328.46 185.92a3.40 3.40 0 1 0 6.81 0a3.40 3.40 0 1 0 -6.81 0M1328.46 197.15a3.40 3.40 0 1 0 6.81 0a3.40 3.40 0 1 0 -6.81 0M1328.46 208.38a3.40 3.40 0 1 0 6.81 0a3.40 3.40 0 1 0 -6.81 0M1328.46 219.62a3.40 3.40 0 1 0 6.81 0a3.40 3.40 0 1 0 -6.81 0M1328.46 230.85a3.40 3.40 0 1 0 6.81 0a3.40 3.40 0 1 0 -6.81 0M1328.46 242.08a3.40 3.40 0 1 0 6.81 0a3.40 3.40 0 1 0 -6.81 0M1328.46 253.31a3.40 3.40 0 1 0 6.81 0a3.40 3.40 0 1 0 -6.81 0M1328.46 264.54a3.40 3.40 0 1 0 6.81 0a3.40 3.40 0 1 0 -6.81 0M1328.46 275.77a3.40 3.40 0 1 0 6.81 0a3.40 3.40 0 1 0 -6.81 0M1328.46 287.00a3.40 3.40 0 1 0 6.81 0a3.40 3.40 0 1 0 -6.81 0M1328.46 298.23a3.40 3.40 0 1 0 6.81 0a3.40 3.40 0 1 0 -6.81 0M1328.46 309.46a3.40 3.40 0 1 0 6.81 0a3.40 3.40 0 1 0 -6.81 0M1328.46 320.69a3.40 3.40 0 1 0 6.81 0a3.40 3.40 0 1 0 -6.81 0M1328.46 331.92a3.40 3.40 0 1 0 6.81 0a3.40 3.40 0 1 0 -6.81 0M1328.46 343.15a3.40 3.40 0 1 0 6.81 0a3.40 3.40 0 1 0 -6.81 0M1328.46 354.38a3.40 3.40 0 1 0 6.81 0a3.40 3.40 0 1 0 -6.81 0M1328.46 365.62a3.40 3.40 0 1 0 6.81 0a3.40 3.40 0 1 0 -6.81 0M1328.46 376.85a3.40 3.40 0 1 0 6.81 0a3.40 3.40 0 1 0 -6.81 0M1328.46 388.08a3.40 3.40 0 1 0 6.81 0a3.40 3.40 0 1 0 -6.81 0M1328.46 399.31a3.40 3.40 0 1 0 6.81 0a3.40 3.40 0 1 0 -6.81 0M1328.46 410.54a3.40 3.40 0 1 0 6.81 0a3.40 3.40 0 1 0 -6.81 0M1328.46 421.77a3.40 3.40 0 1 0 6.81 0a3.40 3.40 0 1 0 -6.81 0M1328.46 433.00a3.40 3.40 0 1 0 6.81 0a3.40 3.40 0 1 0 -6.81 0M1328.46 444.23a3.40 3.40 0 1 0 6.81 0a3.40 3.40 0 1 0 -6.81 0M1328.46 455.46a3.40 3.40 0 1 0 6.81 0a3.40 3.40 0 1 0 -6.81 0M1328.46 466.69a3.40 3.40 0 1 0 6.81 0a3.40 3.40 0 1 0 -6.81 0M1328.46 477.92a3.40 3.40 0 1 0 6.81 0a3.40 3.40 0 1 0 -6.81 0M1328.46 489.15a3.40 3.40 0 1 0 6.81 0a3.40 3.40 0 1 0 -6.81 0M1328.46 500.38a3.40 3.40 0 1 0 6.81 0a3.40 3.40 0 1 0 -6.81 0M1328.46 511.62a3.40 3.40 0 1 0 6.81 0a3.40 3.40 0 1 0 -6.81 0M1328.46 522.85a3.40 3.40 0 1 0 6.81 0a3.40 3.40 0 1 0 -6.81 0M1328.46 534.08a3.40 3.40 0 1 0 6.81 0a3.40 3.40 0 1 0 -6.81 0M1328.46 545.31a3.40 3.40 0 1 0 6.81 0a3.40 3.40 0 1 0 -6.81 0M1328.46 556.54a3.40 3.40 0 1 0 6.81 0a3.40 3.40 0 1 0 -6.81 0M1328.46 567.77a3.40 3.40 0 1 0 6.81 0a3.40 3.40 0 1 0 -6.81 0M1328.46 579.00a3.40 3.40 0 1 0 6.81 0a3.40 3.40 0 1 0 -6.81 0M1328.46 590.23a3.40 3.40 0 1 0 6.81 0a3.40 3.40 0 1 0 -6.81 0M1328.46 601.46a3.40 3.40 0 1 0 6.81 0a3.40 3.40 0 1 0 -6.81 0M1328.46 612.69a3.40 3.40 0 1 0 6.81 0a3.40 3.40 0 1 0 -6.81 0M1328.46 623.92a3.40 3.40 0 1 0 6.81 0a3.40 3.40 0 1 0 -6.81 0M1328.46 635.15a3.40 3.40 0 1 0 6.81 0a3.40 3.40 0 1 0 -6.81 0" fill="#eae3d4" opacity="0.9"/>
<path d="M1326.58 646.38a5.28 5.28 0 1 0 10.57 0a5.28 5.28 0 1 0 -10.57 0" fill="none" stroke="#eae3d4" stroke-width="1.97"/>
<text x="88.00" y="83.00" font-size="16.00" font-weight="400" fill="#eae3d4" opacity="0.68" text-anchor="start">domingo, 2 de julio</text>
<text x="88.00" y="173.00" font-size="78.00" font-weight="300" fill="#eae3d4" opacity="1" text-anchor="start">07:41</text>
<text x="88.00" y="613.25" font-size="12.50" font-weight="400" fill="#eae3d4" opacity="0.48" text-anchor="start">2 de julio, 1937 — La aviadora Amelia Earhart desapareció</text>
<text x="88.00" y="632.63" font-size="12.50" font-weight="400" fill="#eae3d4" opacity="0.48" text-anchor="start">sobre el océano Pacífico durante su intento de vuelo</text>
<text x="88.00" y="652.00" font-size="12.50" font-weight="400" fill="#eae3d4" opacity="0.48" text-anchor="start">alrededor del mundo.</text>
<text x="88.00" y="573.25" font-size="11.50" font-weight="400" fill="#eae3d4" opacity="0.55" text-anchor="start" letter-spacing="1.40">100 % · semana 1040 de 1040</text>
</svg>